<svg width="60" height="29" viewBox="0 0 60 29" fill="none" xmlns="http://www.w3.org/2000/svg">
<g clip-path="url(#clip0_166_286)">
<path d="M51.7916 18.4872C51.7916 19.2225 51.7856 19.9577 51.7961 20.693C51.7961 20.8693 51.7435 20.909 51.5781 20.9038C51.2061 20.8918 50.8332 20.891 50.4619 20.9038C50.2875 20.9098 50.2319 20.8663 50.2327 20.6787C50.2409 19.284 50.2394 17.8893 50.2364 16.4946C50.24 16.2833 50.2013 16.0734 50.1226 15.8772C50.0439 15.681 49.9267 15.5025 49.778 15.3522C49.6292 15.2018 49.4519 15.0825 49.2564 15.0015C49.0608 14.9204 48.8511 14.8791 48.6393 14.88C48.4276 14.8809 48.2182 14.924 48.0234 15.0067C47.8286 15.0894 47.6522 15.2102 47.5048 15.3618C47.3573 15.5134 47.2417 15.6929 47.1646 15.8898C47.0876 16.0866 47.0507 16.2968 47.0561 16.5081C47.0476 17.8875 47.0476 19.2672 47.0561 20.6472C47.0561 20.8377 47.0238 20.9135 46.8118 20.9023C46.4475 20.8839 46.0824 20.8839 45.7181 20.9023C45.5197 20.912 45.4851 20.8415 45.4858 20.6599C45.4934 19.2805 45.4934 17.9008 45.4858 16.5208C45.4858 15.9049 45.216 15.4202 44.6725 15.1179C44.1291 14.8155 43.5623 14.832 43.0324 15.1674C42.5476 15.4735 42.3085 15.9356 42.3055 16.5051C42.2995 17.8845 42.2995 19.2642 42.3055 20.6442C42.3055 20.8558 42.2476 20.9113 42.0424 20.9023C41.6711 20.8858 41.2983 20.8925 40.9262 20.9023C40.7932 20.9023 40.742 20.876 40.7428 20.729C40.7488 19.2585 40.7097 17.7865 40.7586 16.3175C40.8112 14.7322 42.0988 13.4928 43.6149 13.3773C44.6101 13.3023 45.4505 13.6166 46.1496 14.3136C46.2563 14.4201 46.2999 14.3984 46.3931 14.3054C47.3342 13.3938 48.4527 13.1162 49.6832 13.5416C50.9001 13.9625 51.5827 14.874 51.7728 16.1457C51.7861 16.2663 51.7904 16.3876 51.7856 16.5088C51.7906 17.1685 51.7926 17.828 51.7916 18.4872Z" fill="#767775"/>
<path d="M38.5637 9.86146C39.0899 10.3731 39.5778 10.848 40.0671 11.3207C40.0921 11.3489 40.1105 11.3823 40.1211 11.4185C40.1316 11.4547 40.134 11.4928 40.128 11.53C40.128 13.4641 40.1468 15.3975 40.119 17.3309C40.0942 19.0805 38.6667 20.6282 36.9259 20.8571C34.8294 21.1309 33.0517 19.8817 32.6188 17.8336C32.3076 16.3586 33.0307 14.7155 34.3213 13.9323C35.1842 13.4071 36.102 13.2301 37.095 13.4259C37.2243 13.4506 37.2588 13.4769 37.2235 13.6104C37.1198 14.0058 37.0236 14.4027 36.9409 14.8026C36.9123 14.9414 36.8657 14.9639 36.7304 14.9466C35.8585 14.8356 35.1181 15.0847 34.5806 15.8012C34.0755 16.4764 33.9793 17.2229 34.3115 17.9911C34.6438 18.7594 35.2549 19.2148 36.105 19.3153C37.4242 19.4706 38.572 18.406 38.5668 17.0863C38.557 14.7808 38.5668 12.4761 38.5668 10.1706L38.5637 9.86146Z" fill="#767775"/>
<path d="M58.4305 9.86155C58.9634 10.3815 59.4505 10.8579 59.9391 11.3313C60.0045 11.3943 59.9962 11.4671 59.9962 11.5413C59.9962 13.4597 60.0067 15.3774 59.9962 17.2957C59.9827 19.0468 58.532 20.6141 56.7843 20.8616C55.8247 21.0046 54.8465 20.7769 54.0492 20.225C53.2518 19.6731 52.6953 18.8386 52.493 17.8914C52.1728 16.3579 52.8989 14.6834 54.255 13.8896C55.0762 13.3944 56.0552 13.229 56.994 13.4267C57.1166 13.4507 57.1158 13.489 57.0918 13.588C56.991 13.9992 56.8941 14.4133 56.8061 14.8259C56.7768 14.9625 56.7092 14.9595 56.5949 14.943C55.2126 14.7479 54.2835 15.6692 54.0565 16.6138C53.7047 18.079 54.9202 19.4759 56.425 19.3146C56.9791 19.2638 57.4934 19.006 57.8651 18.5929C58.2369 18.1797 58.4385 17.6416 58.4297 17.0864C58.4333 14.7817 58.4333 12.4769 58.4297 10.1721L58.4305 9.86155Z" fill="#767775"/>
<path d="M13.7262 22.9385C13.7262 25.379 12.2416 26.9688 10.2798 27.1398C9.72617 27.1851 9.16941 27.107 8.64978 26.9111C8.13015 26.7153 7.66065 26.4065 7.27526 26.0073C6.88986 25.6081 6.59822 25.1283 6.42143 24.6027C6.24464 24.0772 6.18712 23.519 6.25305 22.9685C6.33656 22.1625 6.69603 21.41 7.27081 20.8378C8.12396 19.9712 8.98388 19.1122 9.83778 18.2502C9.94451 18.1414 10.0039 18.1234 10.1212 18.2427C10.9766 19.1137 11.85 19.9682 12.6994 20.8453C13.3909 21.5565 13.7194 22.423 13.7262 22.9385Z" fill="#39B3AB"/>
<path d="M19.9666 17.1545C19.9747 17.8945 19.7627 18.6202 19.3574 19.24C18.9522 19.8597 18.3719 20.3455 17.6901 20.6361C17.0082 20.9266 16.2552 21.0088 15.5265 20.8723C14.7978 20.7357 14.1261 20.3865 13.5962 19.8689C12.7431 19.0279 11.8989 18.1764 11.0405 17.3376C10.9142 17.2138 10.9278 17.1553 11.0458 17.0375C11.9132 16.189 12.7558 15.3119 13.6398 14.4866C14.744 13.4476 16.0625 13.1775 17.4733 13.6771C18.8579 14.1603 19.6735 15.1881 19.926 16.6414C19.9552 16.8108 19.9688 16.9826 19.9666 17.1545Z" fill="#39B3AB"/>
<path d="M9.95972 7.23326C10.4886 7.22846 11.0125 7.33565 11.4969 7.54776C11.9812 7.75987 12.415 8.07208 12.7696 8.46379C13.1242 8.8555 13.3915 9.3178 13.554 9.8202C13.7165 10.3226 13.7703 10.8537 13.7121 11.3784C13.6296 12.209 13.2615 12.9855 12.6702 13.5758C11.8231 14.4356 10.9662 15.2856 10.1146 16.1394C10.0462 16.2085 9.9958 16.2895 9.88155 16.1754C8.95624 15.2234 7.95275 14.3433 7.09209 13.3328C6.16077 12.2374 5.97661 10.9545 6.49075 9.62204C6.98986 8.32412 7.96929 7.54762 9.34711 7.28203C9.55011 7.25322 9.7547 7.23694 9.95972 7.23326Z" fill="#39B3AB"/>
<path d="M0.00235564 17.1763C0.000173501 16.2272 0.363013 15.3135 1.01603 14.6236C1.66905 13.9337 2.56244 13.5203 3.51191 13.4686C4.63491 13.4015 5.5963 13.7642 6.39608 14.5564C7.22743 15.3779 8.04976 16.207 8.88938 17.0187C9.03971 17.1643 9.02243 17.2341 8.88412 17.3691C8.04901 18.1861 7.23044 19.0196 6.39232 19.8337C5.30992 20.875 4.01779 21.1953 2.59262 20.7415C1.20052 20.2988 0.367669 19.3017 0.0542211 17.877C0.0293863 17.7583 0.0128099 17.6379 0.00461072 17.5169C-0.00365768 17.4044 0.00235564 17.2903 0.00235564 17.1763Z" fill="#767775"/>
<path d="M31.9557 18.691C31.9557 19.4413 31.9467 20.0572 31.9603 20.6709C31.9648 20.8675 31.9031 20.911 31.719 20.9035C31.3431 20.8893 30.9741 20.8908 30.602 20.9035C30.4261 20.9095 30.3697 20.863 30.3712 20.6784C30.3792 19.4955 30.3792 18.3127 30.3712 17.1298C30.3652 16.0659 29.6947 15.2129 28.6724 14.9541C27.681 14.705 26.5828 15.2429 26.1626 16.1845C25.7169 17.1815 26.0333 18.3467 26.9045 18.9311C27.3773 19.2477 27.8922 19.3925 28.4582 19.3062C28.6514 19.277 28.7386 19.3145 28.7762 19.5268C28.8408 19.9019 28.9445 20.2635 29.0363 20.6304C29.0641 20.7407 29.0596 20.7902 28.9197 20.8202C26.8316 21.2651 24.7044 19.7789 24.4262 17.6692C24.1617 15.6713 25.3831 13.876 27.3623 13.4566C29.7143 12.9577 31.6513 14.5992 31.9129 16.6211C32.0121 17.3578 31.9257 18.0946 31.9557 18.691Z" fill="#767775"/>
<path d="M13.6053 0.00173695C15.2004 -0.0470291 16.6767 1.17737 16.9127 2.79415C17.075 3.89176 16.7842 4.85057 16.0174 5.64509C15.2763 6.41559 14.5051 7.15683 13.7542 7.91833C13.6339 8.04062 13.5738 8.03987 13.4535 7.91833C12.8755 7.32789 12.2719 6.7607 11.7081 6.1575C11.4074 5.8379 11.0744 5.5513 10.8286 5.18218C10.4224 4.58334 10.2245 3.86793 10.2652 3.1459C10.306 2.42386 10.5832 1.73516 11.0542 1.18562C11.7261 0.391865 12.5838 0.0227439 13.6053 0.00173695Z" fill="#B5DBD4"/>
<path d="M16.339 12.5711C15.8685 12.5711 15.3972 12.5636 14.9266 12.5749C14.7462 12.5794 14.6748 12.5418 14.6778 12.3415C14.6891 11.4705 14.6726 10.5987 14.6868 9.72692C14.7124 8.21442 15.664 7.04554 17.1418 6.80996C18.8195 6.54212 20.2086 7.66299 20.4725 9.18599C20.5953 9.90998 20.4386 10.6535 20.0342 11.2669C19.6297 11.8802 19.0074 12.3178 18.2926 12.4916C18.0868 12.5424 17.8755 12.5676 17.6635 12.5666C17.223 12.5666 16.7825 12.5666 16.342 12.5666L16.339 12.5711Z" fill="#8FCDC5"/>
<path d="M0.864532 23.8338C0.808157 22.6755 1.96197 21.6296 3.2338 21.8832C3.81034 21.998 4.39439 22.079 4.97618 22.1668C5.09495 22.1848 5.17237 22.2246 5.14606 22.3491C4.9837 23.1294 4.96641 23.9426 4.67251 24.6914C4.36357 25.4799 3.43901 25.9458 2.59488 25.822C1.66206 25.6854 1.13288 25.1355 0.887834 24.2622C0.875943 24.2265 0.868373 24.1895 0.865284 24.1519C0.862278 24.0462 0.864532 23.9404 0.864532 23.8338Z" fill="#B5DBD4"/>
<path d="M19.9314 2.05802C20.2013 2.05618 20.4687 2.10951 20.7171 2.21472C20.9655 2.31993 21.1897 2.47479 21.3759 2.66976C21.5621 2.86474 21.7063 3.0957 21.7997 3.34842C21.8931 3.60113 21.9336 3.87025 21.9189 4.1392C21.8969 4.61131 21.7079 5.06034 21.3854 5.40639C21.0629 5.75245 20.6279 5.9731 20.1577 6.02907C19.7525 6.07408 19.3805 5.96905 18.9948 5.92179C18.6092 5.87452 18.2056 5.79649 17.8117 5.73272C17.6614 5.70872 17.5862 5.67045 17.6306 5.47239C17.7576 4.87219 17.8561 4.25999 17.95 3.65004C18.0846 2.78276 18.9813 1.99725 19.9314 2.05802Z" fill="#CFE9E3"/>
<path d="M43.2527 25.2695C43.2527 25.4135 43.2527 25.5576 43.2527 25.7016C43.2484 25.7321 43.2511 25.7631 43.2604 25.7924C43.2698 25.8216 43.2856 25.8484 43.3068 25.8708C43.3279 25.8931 43.3538 25.9104 43.3826 25.9214C43.4114 25.9324 43.4422 25.9368 43.4729 25.9342C43.6233 25.9402 43.7285 25.8652 43.7375 25.7091C43.7511 25.4675 43.7458 25.2245 43.7488 24.9821C43.7488 24.9071 43.7488 24.8321 43.7488 24.7571C43.7478 24.7457 43.7495 24.7342 43.7537 24.7236C43.7578 24.713 43.7643 24.7034 43.7727 24.6957C43.7811 24.6879 43.7912 24.6822 43.8022 24.6789C43.8131 24.6757 43.8247 24.6749 43.836 24.6768C43.8894 24.6768 43.9277 24.7008 43.9269 24.7518C43.9209 25.1142 43.9818 25.4818 43.8939 25.8374C43.8345 26.079 43.5564 26.178 43.297 26.0625C43.2561 26.0443 43.212 26.0343 43.1672 26.0333C43.1224 26.0323 43.0779 26.0402 43.0362 26.0565C42.7709 26.1315 42.4785 26.0565 42.2394 26.2898C42.1485 26.3768 41.9388 26.3161 41.8388 26.1728C41.8287 26.1514 41.8144 26.1322 41.7967 26.1164C41.779 26.1006 41.7584 26.0886 41.7359 26.0809C41.7135 26.0733 41.6897 26.0703 41.6661 26.072C41.6424 26.0737 41.6194 26.0802 41.5983 26.091C41.525 26.1115 41.4488 26.1199 41.3728 26.1158C40.2407 26.1158 39.1092 26.1158 37.9782 26.1158C37.9699 26.1158 37.9624 26.1158 37.9549 26.1158C37.6911 26.1225 37.4393 25.9612 37.1581 26.1045C37.0273 26.1713 36.883 25.9875 36.6808 26.0527C36.4403 26.1278 36.1847 26.109 36.0862 26.4174C36.076 26.4378 36.0611 26.4556 36.0429 26.4694C36.0246 26.4833 36.0034 26.4928 35.981 26.4972C35.9585 26.5016 35.9353 26.5008 35.9131 26.4949C35.891 26.489 35.8705 26.4781 35.8532 26.4631C35.7818 26.3881 35.8825 26.3423 35.9427 26.2973C36.0442 26.2223 36.0554 26.1068 36.0554 25.9897C36.0554 25.7324 36.0554 25.4743 36.0554 25.217C36.0554 25.1517 36.0381 25.0744 36.1494 25.0759C36.2606 25.0774 36.2373 25.1584 36.2388 25.2215C36.2388 25.3715 36.2388 25.5216 36.2388 25.6761C36.2388 25.8472 36.3238 25.9274 36.4884 25.9289C36.653 25.9305 36.7229 25.8337 36.7259 25.6851C36.7312 25.4045 36.7259 25.1239 36.7259 24.8433C36.7259 24.7758 36.6936 24.6768 36.8169 24.676C36.9401 24.6753 36.9086 24.7743 36.9093 24.8426C36.9093 25.1074 36.9168 25.373 36.9093 25.6379C36.9041 25.8232 36.9687 25.932 37.1657 25.9289C37.3626 25.9259 37.3912 25.7909 37.3912 25.6289C37.3912 25.4848 37.3912 25.3408 37.3912 25.1967C37.3912 25.1337 37.3912 25.0737 37.4844 25.0744C37.5776 25.0752 37.5761 25.1344 37.5768 25.1975C37.5768 25.3415 37.5768 25.4856 37.5768 25.6296C37.5708 25.8412 37.676 25.935 37.882 25.9297C38.1015 25.9259 38.3751 26.0047 38.5269 25.8989C38.6968 25.7849 38.5645 25.4923 38.5931 25.2807C38.6036 25.2057 38.5465 25.0864 38.6818 25.0894C38.7968 25.0894 38.7464 25.2027 38.7569 25.2687C38.7596 25.2989 38.7596 25.3293 38.7569 25.3595C38.7569 25.9732 38.7569 25.971 39.3846 25.9335C39.4906 25.9267 39.5349 25.8982 39.5304 25.7894C39.5244 25.5921 39.5304 25.3955 39.5304 25.1982C39.5304 25.1359 39.5304 25.0744 39.6191 25.0722C39.7078 25.0699 39.7123 25.1299 39.7123 25.193C39.7123 25.3828 39.7183 25.5726 39.7123 25.7616C39.7071 25.8862 39.7454 25.9297 39.8777 25.9342C40.479 25.9537 40.479 25.9575 40.485 25.3625C40.485 25.2672 40.4023 25.0902 40.5602 25.0842C40.7511 25.0767 40.6572 25.2665 40.6594 25.3625C40.6699 25.9312 40.6647 25.9312 41.2247 25.9305C41.3156 25.9305 41.4066 25.9305 41.4975 25.9229C41.5262 25.924 41.5547 25.919 41.5812 25.9082C41.6078 25.8975 41.6318 25.8813 41.6517 25.8607C41.6715 25.8401 41.6868 25.8156 41.6965 25.7887C41.7062 25.7618 41.7101 25.7331 41.708 25.7046C41.7055 25.6246 41.7213 25.5451 41.7543 25.4722C41.7872 25.3993 41.8365 25.3348 41.8982 25.2837C42.1718 25.0677 42.5168 25.2597 42.5687 25.6589C42.5822 25.7601 42.5852 25.8532 42.6965 25.9019C42.8829 25.983 43.052 25.8854 43.0603 25.6731C43.07 25.3925 43.0603 25.1119 43.0648 24.8313C43.0648 24.7638 43.0355 24.664 43.1617 24.6715C43.264 24.6775 43.2467 24.7608 43.2474 24.8261C43.2542 24.9821 43.2527 25.1254 43.2527 25.2695Z" fill="#767776"/>
<path d="M28.8553 25.5636C29.1627 25.1637 29.3814 25.0616 29.6114 25.1802C29.8099 25.2867 29.8602 25.5335 29.7573 25.9387C30.0474 25.9387 30.333 25.9387 30.6179 25.9387C30.7931 25.9387 30.8788 25.8374 30.878 25.6626C30.878 25.4045 30.8735 25.1472 30.878 24.8891C30.878 24.8141 30.8239 24.6805 30.9765 24.6843C31.1118 24.6843 31.0577 24.8081 31.0592 24.8786C31.0659 25.1284 31.0637 25.3782 31.0592 25.6288C31.0592 25.9537 30.9201 26.1187 30.5999 26.1217C29.628 26.1315 28.6561 26.127 27.6842 26.1262C27.6474 26.1258 27.6112 26.1182 27.5774 26.1037C27.4965 26.0605 27.4061 26.0379 27.3143 26.0379C27.2225 26.0379 27.1322 26.0605 27.0512 26.1037C27.0317 26.1142 27.0016 26.1277 26.9866 26.1202C26.6754 25.9582 26.368 26.1382 26.0583 26.127C25.7321 26.115 25.4051 26.127 25.0811 26.1225C24.7571 26.118 24.6113 25.9417 24.6121 25.6078C24.6121 25.2582 24.7496 25.1022 25.0691 25.0826C25.4397 25.0624 25.4397 25.0624 25.4397 25.427C25.4397 25.9417 25.4397 25.9417 25.9591 25.9417C26.5303 25.9417 26.5251 25.9417 26.5356 25.367C26.5356 25.2747 26.4461 25.0992 26.619 25.0932C26.8085 25.0872 26.6942 25.2657 26.7115 25.3587C26.7255 25.464 26.7268 25.5705 26.7152 25.6761C26.7085 25.8456 26.7904 25.9319 26.9573 25.9357C27.1242 25.9394 27.2016 25.8366 27.2016 25.6776C27.2016 25.541 27.1978 25.4045 27.2053 25.268C27.2091 25.1974 27.158 25.0811 27.3015 25.0864C27.4248 25.0864 27.3827 25.1922 27.3857 25.259C27.3925 25.3877 27.3925 25.5166 27.3857 25.6453C27.373 25.8479 27.4647 25.9402 27.6654 25.9387C27.9615 25.9387 28.2577 25.9319 28.5538 25.9387C28.6794 25.9424 28.7109 25.8952 28.7079 25.7811C28.7027 25.5155 28.7079 25.2507 28.7079 24.9851C28.7079 24.9176 28.6756 24.8148 28.8011 24.8216C28.9267 24.8283 28.8846 24.9251 28.8823 24.9949C28.8755 25.1712 28.865 25.3452 28.8553 25.5636Z" fill="#767776"/>
<path d="M49.1849 25.5028C49.2601 25.4818 49.2758 25.397 49.3225 25.343C49.4818 25.1592 49.7043 25.0857 49.8892 25.178C50.0862 25.277 50.1305 25.4571 50.1147 25.6596C50.0929 25.9102 49.9644 26.0685 49.7389 26.1098C49.6713 26.1202 49.6028 26.1242 49.5344 26.1218C49.1248 26.1218 48.7128 26.145 48.3054 26.115C48.0048 26.0925 47.7086 26.0468 47.3982 26.115C47.1509 26.1668 46.884 26.1195 46.6262 26.1278C46.5007 26.1315 46.4473 26.097 46.4556 25.9635C46.4653 25.7902 46.4593 25.6154 46.4556 25.4383C46.4556 25.3903 46.4819 25.3213 46.4075 25.3055C46.3331 25.2898 46.2977 25.3408 46.2699 25.3993C46.1947 25.5591 46.2233 25.7302 46.2346 25.8922C46.2481 26.088 46.1782 26.1323 45.9925 26.127C45.5603 26.1128 45.1274 26.1173 44.6944 26.127C44.5568 26.127 44.5163 26.0798 44.5486 25.9545C44.5809 25.8292 44.6087 25.6881 44.6546 25.5613C44.682 25.4736 44.7306 25.3939 44.7962 25.3292C44.8617 25.2646 44.9421 25.217 45.0304 25.1907C45.1056 25.169 45.2273 25.1089 45.2619 25.226C45.2965 25.343 45.1642 25.3265 45.0935 25.349C44.9146 25.406 44.7358 25.6949 44.7643 25.8742C44.7771 25.9537 44.8282 25.9492 44.8793 25.9492C45.2288 25.9492 45.5776 25.9492 45.9271 25.9492C46.0136 25.9492 46.0519 25.92 46.0482 25.8314C46.0444 25.7429 46.0482 25.6499 46.0482 25.5583C46.0449 25.4671 46.0649 25.3765 46.106 25.295C46.2008 25.112 46.3819 25.0774 46.5571 25.0984C46.7322 25.1195 46.639 25.2823 46.6405 25.3738C46.651 25.9485 46.6465 25.9485 47.2215 25.9485C47.7349 25.9485 47.7267 25.9485 47.7409 25.4316C47.7447 25.3213 47.6342 25.1022 47.8326 25.1067C48.0108 25.112 47.8845 25.3265 47.9161 25.4436C47.9274 25.5111 47.9274 25.5801 47.9161 25.6476C47.9018 25.8479 47.995 25.9477 48.1942 25.9477C48.4144 25.9477 48.6347 25.9432 48.8542 25.9477C48.9767 25.9522 49.0113 25.9057 49.009 25.7894C49.0022 25.5171 49.009 25.244 49.009 24.9717C49.009 24.9071 48.9902 24.8261 49.0992 24.8216C49.2082 24.8171 49.1887 24.8966 49.1887 24.9664L49.1849 25.5028Z" fill="#767776"/>
<path d="M58.1637 26.1226C57.7586 26.0949 57.2565 26.1692 56.7596 26.0881C56.6574 26.0716 56.6739 26.1422 56.6559 26.1939C56.6093 26.3245 56.5544 26.4528 56.4026 26.4895C56.3605 26.4993 56.2951 26.545 56.2665 26.467C56.2555 26.4465 56.2529 26.4226 56.2592 26.4002C56.2655 26.3778 56.2803 26.3588 56.3003 26.347C56.501 26.2517 56.4837 26.0716 56.4837 25.8968L56.4837 25.2156C56.4837 25.1406 56.4837 25.0768 56.5867 25.0828C56.6897 25.0888 56.6671 25.1578 56.6679 25.2133C56.6679 25.3724 56.6679 25.5315 56.6679 25.6905C56.6627 25.7229 56.665 25.7561 56.6747 25.7875C56.6843 25.8189 56.701 25.8477 56.7235 25.8716C56.746 25.8956 56.7736 25.9141 56.8044 25.9258C56.8351 25.9374 56.8682 25.9419 56.9009 25.9388C57.1512 25.9463 57.4023 25.9388 57.6526 25.9456C57.7578 25.9456 57.7789 25.8931 57.7774 25.8045C57.7774 25.6147 57.7774 25.4257 57.7774 25.2366C57.7774 25.1616 57.7819 25.0911 57.8811 25.0993C57.9803 25.1076 57.9563 25.1818 57.9563 25.2389C57.9563 25.4204 57.9615 25.6027 57.9563 25.7843C57.9563 25.8946 57.9796 25.9531 58.1066 25.9471C58.2885 25.9381 58.4712 25.9381 58.6531 25.9471C58.7809 25.9531 58.8034 25.8938 58.8034 25.7835C58.7981 25.602 58.8034 25.4204 58.8034 25.2381C58.8034 25.1766 58.7771 25.0918 58.8876 25.0881C59.0124 25.0836 58.9853 25.1773 58.9868 25.2471C58.9868 25.4294 58.9936 25.611 58.9868 25.7925C58.9815 25.9118 59.0244 25.9501 59.1432 25.9478C59.8678 25.9343 59.767 26.0401 59.7753 25.3476L59.7753 25.1886C59.7753 25.1278 59.7941 25.0888 59.8655 25.0881C59.9369 25.0873 59.9595 25.1211 59.9595 25.1841C59.9595 25.4092 59.9738 25.6402 59.9497 25.8646C59.9256 26.0889 59.7445 26.1249 59.5588 26.1264C59.1229 26.1241 58.6906 26.1226 58.1637 26.1226Z" fill="#777876"/>
<path d="M55.0135 26.123C54.6947 26.123 54.376 26.123 54.0573 26.123C53.7131 26.1185 53.556 25.9587 53.5537 25.6188C53.5537 25.2437 53.692 25.0936 54.0438 25.0839C54.1047 25.0839 54.1656 25.0884 54.2257 25.0839C54.3415 25.0726 54.3903 25.1139 54.3851 25.2339C54.376 25.4155 54.3896 25.5978 54.3806 25.7786C54.3738 25.9099 54.4234 25.9467 54.5504 25.9444C54.9526 25.9377 55.3547 25.9444 55.7569 25.9399C55.8523 25.9399 55.9914 26.0067 55.9997 25.8049C56.0117 25.4913 55.9741 25.3877 55.7741 25.366C55.6307 25.3521 55.4864 25.3506 55.3427 25.3615C55.2066 25.3697 55.1593 25.3315 55.1593 25.1867C55.1593 24.7853 55.5073 24.5392 55.8854 24.6825C55.9068 24.6889 55.9251 24.7029 55.937 24.7218C55.9489 24.7407 55.9535 24.7632 55.95 24.7853C55.95 24.8483 55.9034 24.8551 55.8553 24.8603C55.7493 24.8603 55.6426 24.8603 55.5374 24.8708C55.4321 24.8813 55.3382 24.9398 55.3434 25.0764C55.3487 25.2369 55.4705 25.1649 55.5456 25.1762C55.6494 25.1919 55.7569 25.1889 55.8613 25.2047C56.0658 25.2354 56.1567 25.3712 56.1718 25.5663C56.2131 26.126 56.2124 26.126 55.6524 26.126L55.0135 26.123Z" fill="#767876"/>
<path d="M35.4699 27.4963C35.4699 27.8069 35.4699 28.1175 35.4699 28.4273C35.4699 28.4888 35.4962 28.5736 35.3857 28.5774C35.2594 28.5834 35.2857 28.4903 35.2857 28.4198C35.2857 28.0717 35.2857 27.7228 35.2857 27.3747C35.2857 27.2997 35.2624 27.2112 35.3872 27.2187C35.4864 27.2247 35.6007 27.1789 35.645 27.3305C35.7346 27.6442 35.8462 27.9513 35.9788 28.2495C36.0697 27.9697 36.1584 27.6891 36.2539 27.41C36.2757 27.3485 36.2727 27.2704 36.3388 27.2299C36.3678 27.2116 36.4013 27.2014 36.4356 27.2004C36.4699 27.1994 36.5039 27.2077 36.5339 27.2243C36.5639 27.241 36.5888 27.2655 36.6061 27.2951C36.6234 27.3247 36.6323 27.3585 36.632 27.3927C36.632 27.7333 36.632 28.0747 36.632 28.4153C36.632 28.4903 36.6515 28.5789 36.5312 28.5781C36.411 28.5774 36.4373 28.4813 36.4373 28.4123C36.4422 28.113 36.4272 27.8138 36.3922 27.5165C36.3012 27.7881 36.2125 28.0605 36.1193 28.3313C36.09 28.4176 36.0983 28.5361 35.9502 28.5316C35.8149 28.5279 35.8254 28.4146 35.7999 28.338C35.7014 28.0552 35.6127 27.7694 35.5202 27.485L35.4699 27.4963Z" fill="#777977"/>
<path d="M51.6834 26.1224C51.6082 26.1224 51.5331 26.1269 51.4579 26.1224C51.2933 26.1089 51.1467 26.1089 51.1001 26.3212C51.0881 26.3768 51.0167 26.4263 50.9625 26.4645C50.9084 26.5028 50.8408 26.5291 50.7972 26.4758C50.7385 26.4045 50.7972 26.3542 50.8603 26.3167C50.9234 26.2792 50.9813 26.2245 50.9535 26.1554C50.9257 26.0864 50.846 26.1292 50.7889 26.1232C50.495 26.0924 50.3379 25.9101 50.3379 25.604C50.3379 25.2664 50.4882 25.0991 50.8039 25.0833C50.8498 25.0833 50.8964 25.0886 50.9407 25.0833C51.1159 25.0563 51.1798 25.1201 51.1715 25.3039C51.1617 25.5057 51.0805 25.7676 51.2061 25.8966C51.3316 26.0256 51.6082 25.9251 51.8172 25.9431C51.8623 25.9476 51.9081 25.9431 51.9532 25.9431C52.3035 25.9431 52.3479 25.8973 52.3486 25.5522L52.3486 25.2116C52.3486 25.1501 52.3486 25.0878 52.4373 25.0848C52.526 25.0818 52.5328 25.1366 52.5328 25.2019L52.5328 25.2469C52.5651 26.0654 52.5095 26.1224 51.6834 26.1224Z" fill="#777876"/>
<path d="M33.8163 25.2777C33.8163 25.1277 33.8163 24.9776 33.8163 24.8231C33.8163 24.7593 33.7975 24.6798 33.9065 24.6775C34.0155 24.6753 34.0004 24.7526 34.0012 24.8193C34.0012 25.0849 34.0012 25.3498 34.0012 25.6146C34.0012 25.8629 34.0763 25.9342 34.3266 25.9432C34.425 25.9495 34.5237 25.946 34.6213 25.9327C34.7807 25.9072 34.8851 25.8224 34.8769 25.6431C34.8714 25.5215 34.8906 25.4 34.9332 25.286C34.956 25.209 35.0032 25.1415 35.0678 25.0936C35.1323 25.0457 35.2106 25.02 35.291 25.0204C35.375 25.0117 35.4594 25.0309 35.5313 25.075C35.6032 25.1191 35.6585 25.1856 35.6887 25.2642C35.8503 25.6244 35.7 26.04 35.388 26.1008C35.3655 26.1045 35.3354 26.121 35.3226 26.112C35.0513 25.9297 34.7882 26.1173 34.5213 26.124C33.9673 26.1375 33.7779 26.016 33.8208 25.4563C33.8238 25.3993 33.8163 25.3393 33.8163 25.2777Z" fill="#767876"/>
<path d="M29.4724 27.2189C29.6476 27.2369 29.9099 27.1919 30.0159 27.4552C30.1459 27.7756 30.1572 28.1117 29.9625 28.414C29.8468 28.5933 29.6363 28.5828 29.4446 28.5798C29.062 28.5746 29.1034 28.6391 29.0996 28.2482C29.0996 28.0134 29.0996 27.7786 29.0996 27.543C29.0996 27.2144 29.0996 27.2144 29.4724 27.2189Z" fill="#787977"/>
<path d="M43.3994 27.8892C43.3994 27.7076 43.3994 27.5268 43.3994 27.346C43.3994 27.25 43.428 27.2049 43.5287 27.2147C43.5813 27.22 43.6347 27.2147 43.6873 27.2147C43.9181 27.2245 44.1819 27.1809 44.3059 27.4398C44.3815 27.5889 44.4181 27.7546 44.4122 27.9217C44.4063 28.0887 44.3581 28.2514 44.2721 28.3948C44.1714 28.5719 43.9714 28.5756 43.7873 28.5771C43.4009 28.5771 43.4009 28.5771 43.4009 28.202L43.3994 27.8892Z" fill="#767776"/>
<path d="M53.749 28.0706L53.749 28.0481C53.7678 27.9018 53.7047 27.6347 53.7896 27.6317C53.9775 27.6265 54.1752 27.5215 54.3609 27.616C54.4797 27.6768 54.5804 27.616 54.6871 27.598C54.9712 27.5447 55.1065 27.643 55.1223 27.9326C55.1321 28.1134 55.1223 28.2957 55.1223 28.4773C55.1223 28.5358 55.1073 28.5793 55.0336 28.5785C54.96 28.5778 54.9449 28.5358 54.9442 28.4765L54.9374 27.9513C54.9374 27.811 54.8728 27.7443 54.7254 27.7548C54.5781 27.7653 54.4999 27.808 54.5232 27.9799C54.5345 28.1382 54.536 28.297 54.5278 28.4555C54.5278 28.5163 54.5278 28.58 54.4383 28.5785C54.3489 28.577 54.3489 28.5155 54.3481 28.454L54.3443 27.9543C54.3443 27.814 54.2775 27.7458 54.1316 27.7593C54.0046 27.7705 53.9159 27.8035 53.9272 27.9626C53.9384 28.1216 53.9272 28.295 53.9272 28.4615C53.9272 28.5253 53.9272 28.5815 53.8332 28.58C53.7393 28.5785 53.7445 28.5178 53.7445 28.4563L53.749 28.0706Z" fill="#777877"/>
<path d="M25.1495 28.2749C24.9751 28.2382 24.8406 28.2674 24.8225 28.488C24.8158 28.5713 24.7474 28.5975 24.6722 28.5735C24.597 28.5495 24.6459 28.485 24.6564 28.4437C24.7474 28.0776 24.8489 27.7152 24.9308 27.3476C24.9631 27.2051 25.0511 27.2186 25.1503 27.2178C25.2495 27.2171 25.357 27.1991 25.3916 27.3499C25.4742 27.7092 25.5735 28.0656 25.6607 28.4242C25.6727 28.473 25.7148 28.5503 25.6216 28.5743C25.5284 28.5983 25.49 28.5525 25.4818 28.47C25.4577 28.2599 25.3224 28.2434 25.1495 28.2749Z" fill="#777876"/>
<path d="M32.8759 27.8778C32.8759 27.697 32.8759 27.5162 32.8759 27.3354C32.8759 27.2724 32.8526 27.1854 32.9594 27.1854C33.0856 27.1794 33.0481 27.2776 33.0548 27.3452C33.0593 27.3903 33.0593 27.4358 33.0548 27.481C33.0443 27.6017 33.0796 27.6348 33.2097 27.6077C33.5156 27.5447 33.6607 27.6595 33.6907 27.9514C33.7313 28.388 33.6156 28.5763 33.2924 28.5913C32.8752 28.6108 32.8752 28.6108 32.8752 28.1974L32.8759 27.8778Z" fill="#787977"/>
<path d="M38.9675 27.884L38.9675 28.4527C38.9675 28.5134 38.9675 28.6027 38.8818 28.5735C38.7405 28.5224 38.6142 28.599 38.4812 28.5877C38.4291 28.5891 38.3775 28.5778 38.3309 28.5547C38.0948 28.3919 38.1392 28.1436 38.1602 27.9132C38.1783 27.7189 38.297 27.5771 38.503 27.5891C38.7089 27.6011 38.8397 27.5651 38.7916 27.3176C38.7811 27.2613 38.8014 27.214 38.8758 27.2148C38.9502 27.2155 38.9683 27.253 38.9683 27.3153L38.9675 27.884Z" fill="#787977"/>
<path d="M26.074 27.8776C26.074 27.6892 26.074 27.5024 26.074 27.3111C26.074 27.2526 26.0643 27.1866 26.156 27.1806C26.2642 27.1746 26.2544 27.2489 26.2552 27.3164C26.2582 27.3618 26.2582 27.4075 26.2552 27.4529C26.2424 27.585 26.2635 27.6405 26.4273 27.603C26.7054 27.5362 26.8595 27.6637 26.8896 27.9496C26.8975 28.0322 26.8975 28.1153 26.8896 28.1979C26.867 28.474 26.7475 28.5828 26.4664 28.5918C26.0718 28.6053 26.0718 28.6053 26.0718 28.2167L26.074 27.8776Z" fill="#777876"/>
<path d="M32.8578 26.123C32.1346 26.123 32.0805 26.0689 32.0813 25.363C32.079 25.3252 32.079 25.2874 32.0813 25.2497C32.0888 25.1829 32.0482 25.0831 32.1745 25.0854C32.3008 25.0876 32.2609 25.1882 32.2632 25.2549C32.2684 25.405 32.2632 25.555 32.2632 25.7051C32.2601 25.7356 32.2638 25.7664 32.274 25.7954C32.2842 25.8243 32.3006 25.8506 32.3221 25.8725C32.3436 25.8944 32.3697 25.9114 32.3985 25.9221C32.4273 25.9328 32.4581 25.9371 32.4887 25.9347C32.7142 25.9399 32.9442 25.9422 33.1712 25.9347C33.3215 25.9294 33.4035 25.8334 33.4072 25.6826C33.411 25.5318 33.4072 25.3645 33.4072 25.2054C33.4072 25.1446 33.402 25.0831 33.4944 25.0809C33.5869 25.0786 33.5906 25.1304 33.5906 25.1964C33.5906 25.3787 33.6027 25.561 33.5861 25.7411C33.5838 25.8293 33.5499 25.9138 33.4907 25.9793C33.4314 26.0448 33.3506 26.087 33.2629 26.0982C33.1286 26.1157 32.9932 26.124 32.8578 26.123Z" fill="#777876"/>
<path d="M30.4886 27.8777C30.4886 27.6811 30.4886 27.4838 30.4886 27.2865C30.4886 27.2347 30.4841 27.1769 30.5637 27.1724C30.6434 27.1679 30.6705 27.2107 30.6682 27.2835C30.6682 27.321 30.6682 27.3585 30.6682 27.3975C30.6569 27.5475 30.6554 27.6571 30.8794 27.5956C31.1162 27.5318 31.2553 27.6548 31.2726 27.9054C31.2853 28.087 31.2778 28.2693 31.2778 28.4508C31.2778 28.5101 31.2868 28.5769 31.1929 28.5791C31.0846 28.5791 31.0982 28.5041 31.0974 28.4373C31.0974 28.2873 31.0974 28.1357 31.0974 27.9827C31.0974 27.8251 31.035 27.7494 30.8621 27.7576C30.6893 27.7659 30.6584 27.8394 30.6675 27.9864C30.6765 28.1335 30.6675 28.2865 30.6675 28.4411C30.6675 28.5101 30.6735 28.5844 30.5682 28.5799C30.463 28.5754 30.4886 28.5049 30.4878 28.4478C30.4871 28.2565 30.4886 28.0675 30.4886 27.8777Z" fill="#787977"/>
<path d="M32.4181 28.0791C32.4245 28.1163 32.4245 28.1544 32.4181 28.1916C32.3579 28.3349 32.5639 28.5352 32.4872 28.5472C32.2767 28.5822 32.0629 28.5935 31.8498 28.581C31.7138 28.5705 31.6687 28.4519 31.6536 28.3372C31.6363 28.2074 31.6777 28.0896 31.8107 28.0431C31.9048 28.0158 32.0016 27.9987 32.0994 27.992C32.1685 27.983 32.2422 27.992 32.2339 27.8863C32.2342 27.8691 32.2308 27.852 32.2241 27.8361C32.2173 27.8203 32.2073 27.8061 32.1947 27.7943C32.1821 27.7826 32.1672 27.7736 32.1509 27.768C32.1346 27.7624 32.1173 27.7602 32.1001 27.7617C32.0174 27.7617 31.934 27.7662 31.8506 27.7617C31.8017 27.7617 31.7378 27.7827 31.7273 27.7032C31.7168 27.6237 31.7724 27.6237 31.825 27.6079C32.2482 27.4834 32.4181 27.6169 32.4181 28.0791Z" fill="#777877"/>
<path d="M41.7185 28.0831C41.735 28.1994 41.6824 28.3367 41.7936 28.4582C41.8455 28.5168 41.8109 28.6158 41.7185 28.579C41.5614 28.5168 41.4178 28.579 41.2742 28.591C41.0893 28.606 40.9796 28.5243 40.9563 28.3464C40.933 28.1686 41.0021 28.0509 41.19 28.0216C41.2652 28.0103 41.3404 27.9991 41.4155 27.9908C41.4779 27.9841 41.5418 27.9856 41.5381 27.8963C41.54 27.8786 41.538 27.8607 41.5322 27.8439C41.5264 27.8271 41.517 27.8117 41.5045 27.799C41.4921 27.7862 41.477 27.7763 41.4603 27.7701C41.4436 27.7638 41.4258 27.7613 41.408 27.7628C41.3171 27.7628 41.2261 27.7628 41.1352 27.7628C41.0825 27.7628 41.0239 27.7718 41.0239 27.6877C41.0239 27.627 41.069 27.6217 41.1134 27.6067C41.5275 27.4739 41.7185 27.618 41.7185 28.0831Z" fill="#777877"/>
<path d="M37.4769 28.5896C37.1356 28.5963 37.0154 28.4688 37.0154 28.1027C37.0154 27.7606 37.1657 27.5775 37.4431 27.582C37.5037 27.5823 37.5635 27.5961 37.6181 27.6224C37.6727 27.6487 37.7207 27.687 37.7585 27.7342C37.7964 27.7815 37.8232 27.8367 37.8369 27.8956C37.8506 27.9546 37.8508 28.0158 37.8377 28.0749C37.8219 28.1559 37.7791 28.1695 37.7129 28.1695C37.5994 28.1695 37.4874 28.1642 37.3724 28.1695C37.3145 28.1732 37.2221 28.1274 37.2093 28.2295C37.2068 28.2678 37.2171 28.3059 37.2386 28.3378C37.2601 28.3697 37.2916 28.3936 37.3281 28.4058C37.4298 28.437 37.5377 28.4429 37.6423 28.423C37.6964 28.4185 37.7731 28.378 37.7926 28.4703C37.8122 28.5626 37.7272 28.5716 37.6603 28.5791C37.5934 28.5866 37.5378 28.5873 37.4769 28.5896Z" fill="#787977"/>
<path d="M45.1666 28.5906C44.9997 28.6003 44.8388 28.5846 44.7697 28.4023C44.6833 28.1772 44.675 27.9431 44.8118 27.727C44.9058 27.5807 45.0606 27.5672 45.2162 27.5867C45.2804 27.5924 45.3416 27.6167 45.3921 27.6567C45.4426 27.6967 45.4803 27.7506 45.5003 27.8118C45.6003 28.0766 45.5424 28.1644 45.2598 28.1652C45.1921 28.1652 45.1237 28.1599 45.0561 28.1652C45.0027 28.1697 44.9208 28.1314 44.9103 28.2237C44.9036 28.2619 44.9106 28.3011 44.93 28.3347C44.9493 28.3683 44.9798 28.394 45.0162 28.4075C45.1253 28.4405 45.2409 28.4451 45.3522 28.421C45.4079 28.415 45.4838 28.388 45.4898 28.4848C45.4958 28.5816 45.4221 28.5733 45.3635 28.5793C45.3049 28.5853 45.2305 28.5876 45.1666 28.5906Z" fill="#787977"/>
<path d="M51.3302 27.8892C51.326 27.7832 51.3369 27.6771 51.3626 27.5741C51.3862 27.4971 51.4261 27.426 51.4796 27.3657C51.5331 27.3054 51.5989 27.2572 51.6726 27.2244C51.7464 27.1916 51.8263 27.175 51.907 27.1757C51.9877 27.1763 52.0674 27.1943 52.1405 27.2283C52.1615 27.2366 52.1789 27.2522 52.1895 27.2721C52.2001 27.292 52.2032 27.315 52.1984 27.3371C52.1932 27.3851 52.1608 27.3971 52.1195 27.3963C52.0969 27.3963 52.0744 27.3963 52.0511 27.3963C51.8857 27.4031 51.6753 27.3138 51.5881 27.5269C51.5324 27.6482 51.5048 27.7804 51.5073 27.9137C51.5098 28.0471 51.5422 28.1782 51.6023 28.2974C51.6828 28.4542 51.8542 28.3949 51.994 28.4054C52.0639 28.4107 52.1856 28.3349 52.1939 28.4692C52.2022 28.6035 52.0714 28.5757 51.9895 28.5825C51.4806 28.6245 51.3302 28.4669 51.3302 27.8892Z" fill="#777877"/>
<path d="M48.9917 28.584C48.6347 28.5983 48.4971 28.4497 48.5107 28.0701C48.5234 27.7393 48.6933 27.5629 48.9782 27.584C49.0367 27.5893 49.0933 27.6073 49.1441 27.6368C49.1949 27.6662 49.2386 27.7064 49.2722 27.7545C49.3058 27.8026 49.3284 27.8575 49.3386 27.9152C49.3487 27.973 49.346 28.0322 49.3307 28.0889C49.3089 28.1744 49.2556 28.1691 49.1947 28.1691C49.0812 28.1691 48.9692 28.1654 48.8542 28.1691C48.8016 28.1691 48.7151 28.1339 48.7091 28.2262C48.7068 28.2606 48.7146 28.295 48.7316 28.3251C48.7485 28.3552 48.7739 28.3798 48.8046 28.3957C48.9034 28.4358 49.0117 28.4465 49.1165 28.4265C49.1774 28.4265 49.2669 28.3717 49.2856 28.4745C49.3044 28.5915 49.1977 28.5713 49.1278 28.5803C49.0826 28.5845 49.0371 28.5858 48.9917 28.584Z" fill="#787977"/>
<path d="M52.5142 28.0822C52.5142 27.7423 52.645 27.587 52.9321 27.5825C53.2192 27.578 53.3748 27.7528 53.3763 28.0882C53.3763 28.4378 53.244 28.5916 52.9389 28.5908C52.6337 28.5901 52.5134 28.446 52.5142 28.0822Z" fill="#777877"/>
<path d="M59.5159 28.3928C59.5782 28.1782 59.6406 27.9636 59.7015 27.7491C59.7241 27.6673 59.7429 27.5667 59.8571 27.608C59.9541 27.644 59.8842 27.7243 59.8684 27.7828C59.7759 28.1324 59.6805 28.4813 59.585 28.8332C59.5617 28.9172 59.5534 29.0372 59.4219 28.9937C59.3054 28.9547 59.4024 28.8639 59.4136 28.8069C59.4362 28.6959 59.4422 28.6433 59.3385 28.5413C59.2347 28.4393 59.2242 28.209 59.1746 28.0349C59.1475 27.9411 59.116 27.8473 59.0949 27.7521C59.0829 27.6995 59.0453 27.6253 59.14 27.6065C59.2152 27.5915 59.2483 27.6388 59.2663 27.7048C59.3294 27.9366 59.3948 28.1669 59.4587 28.398L59.5159 28.3928Z" fill="#787977"/>
<path d="M57.9359 28.0776L57.9359 28.0543C57.9359 27.5742 57.9359 27.5749 58.4154 27.5824C58.4537 27.5788 58.4923 27.5831 58.5287 27.5953C58.5652 27.6074 58.5986 27.6271 58.627 27.653C58.6553 27.6789 58.6779 27.7104 58.6933 27.7456C58.7086 27.7807 58.7164 27.8187 58.7161 27.857C58.7319 28.0611 58.7251 28.2659 58.7266 28.4707C58.7266 28.5262 58.7214 28.5765 58.6455 28.5788C58.5695 28.581 58.5462 28.533 58.5462 28.464C58.5462 28.2974 58.5462 28.1301 58.5462 27.9636C58.5462 27.8293 58.4936 27.7475 58.3418 27.758C58.2065 27.7677 58.1065 27.7948 58.1163 27.9688C58.1261 28.1429 58.1163 28.3019 58.1163 28.4685C58.1163 28.5435 58.0915 28.5833 58.011 28.5788C57.9306 28.5743 57.9359 28.5157 57.9359 28.4632C57.9351 28.3349 57.9359 28.2059 57.9359 28.0776Z" fill="#797A78"/>
<path d="M28.0532 28.0895L28.0532 28.1578C28.0532 28.2786 28.0795 28.4099 28.0405 28.5172C27.9826 28.6755 27.8345 28.5344 27.7225 28.5659C27.406 28.6552 27.2715 28.5374 27.261 28.2043C27.255 28.046 27.261 27.887 27.261 27.7287C27.261 27.6679 27.2557 27.6034 27.3459 27.5989C27.4511 27.5936 27.4459 27.6664 27.4459 27.7354C27.4459 27.8945 27.4459 28.0528 27.4459 28.2111C27.4496 28.3379 27.4962 28.4399 27.6451 28.4301C27.7811 28.4219 27.8924 28.3866 27.8706 28.2051C27.8612 28.0469 27.8612 27.8883 27.8706 27.7302C27.8706 27.6656 27.8796 27.6056 27.9645 27.6049C28.0495 27.6041 28.0532 27.6694 28.054 27.7309L28.0532 28.0895Z" fill="#7C7D7B"/>
<path d="M50.0638 27.752C50.0908 27.752 50.0532 27.752 50.0149 27.752C49.9397 27.7573 49.8495 27.7603 49.8458 27.8608C49.8458 27.9463 49.9262 27.9621 49.9901 27.9801C50.0705 28.0034 50.154 28.0146 50.2329 28.0401C50.2889 28.0541 50.338 28.0876 50.3716 28.1344C50.4052 28.1813 50.4211 28.2385 50.4163 28.296C50.419 28.3536 50.4029 28.4105 50.3703 28.4581C50.3378 28.5058 50.2906 28.5415 50.2359 28.56C50.081 28.6148 49.9209 28.5878 49.7631 28.572C49.7518 28.5715 49.7408 28.5685 49.7307 28.5634C49.7207 28.5582 49.7118 28.551 49.7047 28.5423C49.6976 28.5335 49.6924 28.5233 49.6896 28.5124C49.6867 28.5015 49.6861 28.4901 49.6879 28.479C49.6879 28.404 49.7473 28.404 49.8022 28.4107C49.9053 28.4366 50.0132 28.4366 50.1164 28.4107C50.1705 28.392 50.2186 28.3725 50.2269 28.3125C50.2366 28.2374 50.1818 28.2029 50.1216 28.1849C50.0344 28.1602 49.9442 28.1467 49.8563 28.1226C49.8029 28.112 49.7545 28.0843 49.7184 28.0436C49.6823 28.003 49.6605 27.9517 49.6563 27.8976C49.6492 27.8443 49.6588 27.7901 49.6837 27.7424C49.7086 27.6948 49.7476 27.6559 49.7954 27.6312C49.9675 27.533 50.1487 27.5757 50.3276 27.617C50.3749 27.6282 50.3787 27.6665 50.3742 27.7055C50.3689 27.7573 50.3276 27.7565 50.29 27.7558C50.2351 27.7618 50.1818 27.758 50.0638 27.752Z" fill="#787977"/>
<path d="M46.2039 28.4736C46.3294 28.2328 46.3467 28.0234 46.4091 27.8246C46.4271 27.7669 46.4399 27.7076 46.461 27.6513C46.482 27.5951 46.5301 27.5966 46.576 27.6018C46.6399 27.6086 46.6414 27.6566 46.6286 27.7023C46.5534 27.9724 46.4843 28.2425 46.4031 28.5104C46.3693 28.6259 46.2633 28.5681 46.1881 28.5786C46.1129 28.5891 46.0423 28.5786 46.0167 28.4803C45.9536 28.2313 45.8822 27.9844 45.8183 27.7361C45.8063 27.6896 45.7814 27.6236 45.8581 27.6048C45.9348 27.5861 45.9791 27.6288 45.9994 27.7098C46.0603 27.9477 46.1265 28.1833 46.2039 28.4736Z" fill="#787977"/>
<path d="M39.9656 28.0884C39.9656 27.6788 40.1505 27.5145 40.5256 27.591C40.585 27.603 40.6541 27.6075 40.6481 27.6923C40.6421 27.7771 40.5654 27.7583 40.5098 27.7606C40.1881 27.7726 40.1377 27.8236 40.1505 28.1282C40.161 28.366 40.2257 28.4283 40.4775 28.4223C40.5474 28.4223 40.6466 28.375 40.6473 28.4973C40.6481 28.6196 40.5406 28.5791 40.4745 28.5843C40.0813 28.6143 39.9663 28.5003 39.9656 28.0884Z" fill="#797A78"/>
<path d="M47.5342 28.0852C47.5342 27.6771 47.7221 27.5143 48.0979 27.5893C48.1581 27.6013 48.2257 27.6088 48.2175 27.6928C48.2092 27.7769 48.1333 27.7574 48.0776 27.7589C47.7574 27.7701 47.6214 27.9839 47.7439 28.284C47.8055 28.4341 47.9408 28.4228 48.0701 28.4161C48.1378 28.4123 48.2167 28.3906 48.2167 28.4971C48.2167 28.5841 48.1415 28.5721 48.0852 28.5834C47.6755 28.6396 47.5334 28.5083 47.5342 28.0852Z" fill="#797A79"/>
<path d="M31.4672 25.4138L31.4672 26.0013C31.4672 26.065 31.4619 26.1235 31.3732 26.122C31.2845 26.1205 31.2808 26.062 31.2808 25.999L31.2808 24.7986C31.2808 24.7341 31.2883 24.6771 31.3762 24.6778C31.4642 24.6786 31.4664 24.7393 31.4672 24.8016L31.4672 25.4138Z" fill="#7C7D7B"/>
<path d="M52.7517 25.3863L52.7517 24.7967C52.7517 24.7314 52.7585 24.6751 52.8464 24.6766C52.9344 24.6781 52.9389 24.7366 52.9389 24.7997L52.9389 26C52.9389 26.0646 52.9321 26.1216 52.8434 26.1201C52.7547 26.1186 52.7517 26.0608 52.7517 25.997L52.7517 25.3863Z" fill="#7B7C7B"/>
<path d="M42.3538 27.8979L42.3538 28.4418C42.3538 28.5079 42.3666 28.5844 42.2569 28.5799C42.1652 28.5799 42.1712 28.5131 42.1712 28.4531L42.1712 27.3187C42.1712 27.2512 42.1607 27.1754 42.2689 27.1807C42.3771 27.1859 42.3516 27.2692 42.3531 27.3307C42.3561 27.5198 42.3538 27.7089 42.3538 27.8979Z" fill="#787977"/>
<path d="M39.5861 28.1048L39.5861 28.4664C39.5861 28.5339 39.5703 28.585 39.4853 28.5797C39.4139 28.5797 39.4004 28.5302 39.4004 28.4724L39.4004 27.7222C39.4004 27.6584 39.4102 27.5991 39.4928 27.5954C39.5755 27.5916 39.5868 27.6524 39.5876 27.7162L39.5861 28.1048Z" fill="#80817F"/>
<path d="M47.1517 28.102L47.1517 28.4636C47.1517 28.5289 47.1404 28.5836 47.054 28.5799C46.9788 28.5799 46.9668 28.5334 46.9668 28.4749L46.9668 27.7066C46.9668 27.6466 46.9886 27.6046 47.0555 27.6001C47.1427 27.5941 47.1517 27.6533 47.1517 27.7179L47.1517 28.102Z" fill="#7D7E7D"/>
<path d="M34.2462 28.0931L34.2462 28.454C34.2462 28.514 34.2462 28.5785 34.159 28.58C34.0718 28.5815 34.062 28.5283 34.062 28.4615L34.062 27.7398C34.062 27.6647 34.0665 27.5987 34.1642 27.601C34.262 27.6032 34.2447 27.676 34.2462 27.7323C34.2477 27.8523 34.2462 27.9723 34.2462 28.0931Z" fill="#7E7E7D"/>
<path d="M53.0078 24.3218C52.9793 24.36 52.9417 24.3525 52.9064 24.3398C52.8485 24.3203 52.8124 24.3488 52.8102 24.3983C52.8079 24.4478 52.859 24.4396 52.8943 24.4471C52.9477 24.4576 53.0447 24.4185 53.0394 24.5033C53.0342 24.5881 52.9342 24.5573 52.8725 24.5671C52.8651 24.5686 52.8574 24.5686 52.85 24.5671C52.7748 24.5536 52.6245 24.5964 52.629 24.5296C52.6322 24.4722 52.6483 24.4163 52.6762 24.3661C52.704 24.3158 52.7429 24.2724 52.7899 24.2392C52.8605 24.1935 52.8943 24.21 53.0078 24.3218Z" fill="#888887"/>
<path d="M52.4164 26.3143C52.4916 26.3075 52.5217 26.3353 52.5217 26.4036C52.5217 26.4718 52.5217 26.5258 52.4322 26.5273C52.3668 26.5273 52.3337 26.5018 52.3345 26.4351C52.3352 26.3683 52.3285 26.3053 52.4164 26.3143Z" fill="#80817F"/>
<path d="M47.9199 26.4105C47.9244 26.4803 47.9049 26.5276 47.8214 26.5253C47.7515 26.5253 47.732 26.4856 47.7312 26.424C47.7305 26.3625 47.7463 26.3077 47.8304 26.31C47.9011 26.3137 47.9229 26.3483 47.9199 26.4105Z" fill="#828381"/>
<path d="M45.3492 26.3146C45.4131 26.3101 45.4485 26.3356 45.4492 26.4039C45.45 26.4721 45.4492 26.5262 45.3598 26.5292C45.2703 26.5322 45.259 26.4834 45.2598 26.4144C45.2606 26.3454 45.2771 26.3071 45.3492 26.3146Z" fill="#838382"/>
<path d="M27.306 26.525C27.2218 26.5303 27.2068 26.4785 27.2075 26.4095C27.2083 26.3405 27.2293 26.3112 27.2992 26.3105C27.3692 26.3097 27.397 26.336 27.397 26.4027C27.397 26.4695 27.3955 26.528 27.306 26.525Z" fill="#828381"/>
<path d="M59.0468 24.8888C58.9844 24.8941 58.9431 24.8746 58.9416 24.8048C58.9401 24.735 58.9341 24.6803 59.0243 24.6765C59.0859 24.6765 59.128 24.6908 59.1287 24.7613C59.1295 24.8318 59.1378 24.8888 59.0468 24.8888Z" fill="#838482"/>
<path d="M54.0715 24.7881C54.0715 24.8497 54.0519 24.8872 53.982 24.8887C53.8963 24.8887 53.8836 24.8422 53.8843 24.7731C53.8851 24.7041 53.9039 24.6756 53.9738 24.6734C54.0594 24.6711 54.0752 24.7191 54.0715 24.7881Z" fill="#818280"/>
<path d="M37.2064 24.8887C37.1433 24.8947 37.1019 24.8729 37.1012 24.8039C37.1004 24.7349 37.0914 24.6779 37.1831 24.6749C37.244 24.6749 37.2876 24.6884 37.2883 24.7589C37.2891 24.8294 37.2966 24.8887 37.2064 24.8887Z" fill="#818280"/>
<path d="M36.1613 24.6779C36.253 24.6779 36.2425 24.7461 36.2425 24.8054C36.2425 24.8647 36.1997 24.8887 36.1388 24.8887C36.0478 24.8842 36.0561 24.8196 36.0561 24.7596C36.0561 24.6996 36.0997 24.6726 36.1613 24.6779Z" fill="#828381"/>
<path d="M32.9495 24.8887C32.8744 24.8887 32.8608 24.8482 32.8616 24.7889C32.8624 24.7296 32.8714 24.6854 32.945 24.6831C33.0187 24.6809 33.0465 24.7244 33.045 24.7956C33.0435 24.8669 33.0157 24.8887 32.9495 24.8887Z" fill="#767775"/>
<path d="M32.736 24.7668C32.7413 24.8463 32.7218 24.8928 32.6383 24.8905C32.5692 24.8905 32.5489 24.853 32.5481 24.7908C32.5474 24.7285 32.5632 24.6745 32.6466 24.6767C32.715 24.679 32.7405 24.7127 32.736 24.7668Z" fill="#848583"/>
<path d="M25.4342 24.7738C25.4388 24.8436 25.4185 24.8901 25.3365 24.8886C25.2546 24.8871 25.2486 24.8474 25.2478 24.7874C25.2471 24.7273 25.2606 24.6703 25.3455 24.6741C25.414 24.6763 25.4373 24.7123 25.4342 24.7738Z" fill="#828381"/>
<path d="M26.6168 26.3145C26.6837 26.3085 26.7153 26.3378 26.7145 26.4045C26.7137 26.4713 26.7145 26.5276 26.6258 26.5283C26.5597 26.5283 26.5281 26.5021 26.5281 26.4353C26.5281 26.3685 26.5251 26.3077 26.6168 26.3145Z" fill="#80817F"/>
<path d="M26.4056 26.3895C26.4056 26.4698 26.4004 26.5231 26.3259 26.5253C26.2515 26.5276 26.2207 26.4855 26.2207 26.4128C26.2207 26.34 26.2463 26.316 26.3139 26.316C26.3816 26.316 26.4094 26.3467 26.4056 26.3895Z" fill="#7A7B79"/>
<path d="M45.1469 26.4218C45.1469 26.4826 45.1266 26.5246 45.0559 26.5224C44.9717 26.5224 44.9612 26.4646 44.9619 26.3978C44.9627 26.3311 45.0055 26.3108 45.0664 26.3123C45.1416 26.3146 45.1476 26.3656 45.1469 26.4218Z" fill="#797A78"/>
<path d="M37.4798 24.6759C37.5475 24.6706 37.5776 24.7044 37.5768 24.7689C37.576 24.8335 37.5768 24.8792 37.5016 24.886C37.4265 24.8927 37.3911 24.8537 37.3904 24.7787C37.3919 24.7187 37.4084 24.6744 37.4798 24.6759Z" fill="#7B7C7A"/>
<path d="M58.7297 24.8845C58.665 24.8845 58.6395 24.85 58.6365 24.7878C58.6335 24.7255 58.6598 24.6767 58.7387 24.6805C58.8176 24.6842 58.8184 24.7322 58.8184 24.7878C58.8184 24.8433 58.8003 24.8883 58.7297 24.8845Z" fill="#767775"/>
<path d="M54.3753 24.7764C54.3753 24.8341 54.3603 24.8799 54.2912 24.8851C54.2062 24.8919 54.1904 24.8409 54.1912 24.7719C54.1919 24.7028 54.2175 24.6751 54.2859 24.6758C54.3543 24.6766 54.3784 24.7133 54.3753 24.7764Z" fill="#7B7C7A"/>
<path d="M24.9466 24.7801C24.9466 24.7201 24.9609 24.6796 25.0316 24.6773C25.1022 24.6751 25.1278 24.7029 25.1278 24.7689C25.1278 24.8349 25.1218 24.8897 25.0338 24.8844C24.9632 24.8799 24.9421 24.8402 24.9466 24.7801Z" fill="#767775"/>
<path d="M49.648 24.8887C49.5976 24.8887 49.5909 24.8384 49.5901 24.7844C49.5894 24.7304 49.6044 24.6831 49.6758 24.6839C49.7472 24.6846 49.7735 24.7319 49.7713 24.8001C49.769 24.8684 49.7314 24.8887 49.648 24.8887Z" fill="#767775"/>
<path d="M58.9808 24.4967C58.9808 24.5672 58.938 24.5837 58.8779 24.583C58.8027 24.583 58.7959 24.535 58.7967 24.4772C58.7974 24.4194 58.835 24.3872 58.8982 24.3909C58.9613 24.3947 58.9846 24.4382 58.9808 24.4967Z" fill="#7F807F"/>
<path d="M47.0689 27.2147C47.1441 27.2147 47.1501 27.2628 47.1501 27.3205C47.1501 27.3783 47.111 27.4091 47.0494 27.406C46.9877 27.403 46.9644 27.3603 46.9667 27.301C46.969 27.2417 47.008 27.2102 47.0689 27.2147Z" fill="#80817F"/>
<path d="M39.5838 27.3112C39.5838 27.3765 39.556 27.4057 39.4906 27.4042C39.4252 27.4027 39.3997 27.369 39.4004 27.306C39.4012 27.2429 39.4312 27.2114 39.4959 27.2122C39.5605 27.2129 39.5868 27.2497 39.5838 27.3112Z" fill="#818280"/>
<path d="M34.2447 27.299C34.2447 27.3553 34.2387 27.4026 34.165 27.4033C34.1057 27.4033 34.0651 27.3868 34.0636 27.3178C34.0621 27.2488 34.0779 27.2165 34.1463 27.212C34.2147 27.2075 34.247 27.23 34.2447 27.299Z" fill="#7F807E"/>
<path d="M12.1756 23.425C12.175 24.0063 11.9431 24.5634 11.5309 24.974C11.1187 25.3845 10.56 25.6149 9.97768 25.6143C9.39537 25.6137 8.83714 25.3822 8.4258 24.9708C8.01446 24.5594 7.78371 24.0018 7.7843 23.4205C7.7812 23.1322 7.83638 22.8462 7.94655 22.5796C8.05671 22.313 8.2196 22.0713 8.42548 21.869C8.89678 21.3971 9.37259 20.929 9.83787 20.4511C9.95138 20.3348 10.016 20.3415 10.125 20.4511C10.591 20.929 11.0661 21.3979 11.5374 21.8705C11.7436 22.0731 11.9065 22.3153 12.0162 22.5825C12.1259 22.8497 12.1801 23.1363 12.1756 23.425Z" fill="white"/>
<path d="M18.4159 17.1778C18.4217 17.6132 18.2957 18.0402 18.0543 18.4028C17.8128 18.7655 17.4673 19.0469 17.0629 19.2102C16.2045 19.5508 15.4002 19.4121 14.7162 18.7908C14.1998 18.3212 13.724 17.808 13.2241 17.3211C13.1212 17.2213 13.1279 17.1651 13.2241 17.069C13.7187 16.5866 14.1975 16.0885 14.6974 15.6121C15.316 15.0224 16.0602 14.8618 16.866 15.1041C17.6718 15.3465 18.1769 15.9219 18.3693 16.7509C18.4076 16.8898 18.4233 17.034 18.4159 17.1778Z" fill="white"/>
<path d="M9.771 8.78275C10.8684 8.78275 11.6622 9.29817 12.002 10.1054C12.1757 10.5037 12.2256 10.9448 12.1451 11.3716C12.0647 11.7985 11.8577 12.1914 11.551 12.4995C11.0729 12.9856 10.5926 13.47 10.11 13.9527C10.0499 14.0135 10.0025 14.1027 9.89503 13.9932C9.36886 13.4508 8.8036 12.9376 8.30524 12.3682C7.69864 11.6749 7.61596 10.8587 8.00006 10.0349C8.38416 9.21114 9.06743 8.80976 9.771 8.78275Z" fill="white"/>
<path d="M1.54395 17.1819C1.54538 16.7495 1.67486 16.3272 1.9161 15.968C2.15734 15.6089 2.49957 15.3289 2.89978 15.1634C3.29999 14.9978 3.7403 14.954 4.16537 15.0375C4.59043 15.121 4.98128 15.3281 5.28878 15.6327C5.76308 16.1031 6.23288 16.5772 6.71696 17.0409C6.83572 17.1557 6.8515 17.2194 6.72297 17.341C6.24115 17.8031 5.77361 18.2795 5.29479 18.7492C4.98597 19.0556 4.59295 19.2637 4.16553 19.347C3.73811 19.4303 3.29553 19.3851 2.89389 19.2171C2.49226 19.049 2.14963 18.7658 1.90944 18.4032C1.66925 18.0407 1.5423 17.6151 1.5447 17.1804L1.54395 17.1819Z" fill="white"/>
<path d="M11.6651 3.33353C11.6117 2.36271 12.4168 1.46391 13.4345 1.37914C13.9232 1.33347 14.4112 1.47189 14.8028 1.76718C15.1943 2.06248 15.4611 2.49328 15.5505 2.97491C15.6783 3.64263 15.4701 4.20306 15.0288 4.68172C14.6124 5.13186 14.1637 5.55425 13.7277 5.98789C13.6743 6.04116 13.6292 6.13794 13.5308 6.03066C13.0271 5.48598 12.4333 5.02533 11.9996 4.41538C11.7252 4.032 11.6644 3.80243 11.6651 3.33353Z" fill="white"/>
<path d="M15.9054 10.3161C15.9054 10.1113 15.9189 9.90573 15.9054 9.70166C15.8453 8.88389 16.5549 8.04662 17.4193 7.9761C18.3874 7.90107 19.1421 8.50127 19.2932 9.44283C19.4435 10.3941 18.7129 11.3522 17.6125 11.3792C17.1043 11.3912 16.5947 11.3792 16.0858 11.3845C15.9453 11.3845 15.9002 11.3387 15.9039 11.2014C15.9122 10.9058 15.9039 10.6102 15.9039 10.3146L15.9054 10.3161Z" fill="white"/>
<path d="M1.68213 23.8387C1.68286 23.6667 1.72168 23.4969 1.7958 23.3416C1.86993 23.1863 1.97753 23.0493 2.1109 22.9403C2.24428 22.8314 2.40013 22.7532 2.56732 22.7113C2.7345 22.6695 2.90889 22.6651 3.07799 22.6983C3.38918 22.7584 3.70263 22.8109 4.01758 22.8484C4.17693 22.8672 4.21001 22.9467 4.18746 23.0735C4.12432 23.4373 4.07846 23.8065 3.98451 24.1621C3.92412 24.4244 3.77034 24.656 3.55176 24.8137C3.33318 24.9715 3.06466 25.0446 2.79611 25.0196C2.12412 24.9723 1.68063 24.4727 1.68213 23.8387Z" fill="white"/>
<path d="M21.1053 3.99075C21.058 4.76051 20.5198 5.30218 19.7426 5.1994C19.4138 5.15589 19.0861 5.10812 18.7594 5.0561C18.6233 5.03435 18.5233 5.00284 18.5775 4.80627C18.6487 4.52178 18.7005 4.23276 18.7323 3.94124C18.8112 3.34779 19.2427 2.9194 19.8177 2.87814C20.0923 2.85727 20.3656 2.93229 20.5909 3.09036C20.8162 3.24843 20.9795 3.47973 21.0527 3.74467C21.0775 3.83095 21.0903 3.92098 21.1053 3.99075Z" fill="white"/>
<path d="M42.3974 25.7835C42.3839 25.8398 42.3711 25.9058 42.3523 25.9711C42.3438 26.0201 42.3171 26.0641 42.2775 26.0942C42.238 26.1244 42.1884 26.1386 42.1388 26.1339C42.0208 26.1301 41.9667 26.0589 41.9359 25.9561C41.9014 25.8478 41.8959 25.7325 41.9201 25.6215C41.9487 25.4954 41.9953 25.3821 42.1456 25.3799C42.2959 25.3776 42.3493 25.4887 42.3711 25.6155C42.3854 25.6672 42.3854 25.7197 42.3974 25.7835Z" fill="#FAFAFA"/>
<path d="M29.1642 25.9394C28.8537 25.9394 28.8485 25.9311 28.9905 25.649C29.0202 25.5877 29.0557 25.5294 29.0965 25.475C29.1965 25.3482 29.3265 25.2559 29.4897 25.3204C29.6528 25.3849 29.6483 25.5455 29.6265 25.6955C29.5994 25.8778 29.4761 25.9439 29.3002 25.9424L29.1642 25.9394Z" fill="#FCFCFC"/>
<path d="M25.251 25.6044L25.251 25.7402C25.251 25.9405 25.1548 26.0058 24.9691 25.9203C24.7662 25.828 24.7849 25.6449 24.8188 25.4701C24.8526 25.2811 24.9887 25.2398 25.16 25.2556C25.2269 25.2623 25.2547 25.2901 25.254 25.3546C25.254 25.4379 25.254 25.5212 25.254 25.6044L25.251 25.6044Z" fill="#FAFAFA"/>
<path d="M49.4697 25.9392C49.4096 25.9392 49.3494 25.9392 49.2893 25.9392C49.2089 25.9392 49.1765 25.913 49.2096 25.8319C49.2607 25.6759 49.3459 25.5331 49.4592 25.4141C49.5606 25.321 49.6787 25.2678 49.808 25.3345C49.9372 25.4013 49.9372 25.5416 49.9267 25.6721C49.928 25.737 49.905 25.7999 49.8622 25.8487C49.8193 25.8974 49.7598 25.9284 49.6952 25.9355C49.6204 25.9443 49.5451 25.9485 49.4697 25.9482L49.4697 25.9392Z" fill="#FCFCFC"/>
<path d="M50.9784 25.6011L50.9784 25.7377C50.9784 25.9395 50.9033 25.992 50.7176 25.929C50.5673 25.8787 50.535 25.7489 50.5372 25.6191C50.5395 25.4893 50.5425 25.3355 50.6981 25.271C50.9123 25.1825 50.9784 25.2642 50.9784 25.6011Z" fill="#FDFDFD"/>
<path d="M35.064 25.5641C35.0752 25.5064 35.0865 25.4396 35.1008 25.3743C35.1264 25.2618 35.1857 25.1785 35.3105 25.1755C35.4353 25.1725 35.4932 25.255 35.5255 25.3676C35.5619 25.4897 35.5637 25.6196 35.5308 25.7427C35.4992 25.8597 35.4481 25.9543 35.3053 25.949C35.1624 25.9438 35.1166 25.847 35.094 25.7277L35.064 25.5641Z" fill="#FAFAF9"/>
<path d="M29.2829 27.8897C29.2742 27.8222 29.2742 27.7538 29.2829 27.6863C29.3099 27.5881 29.1851 27.429 29.3896 27.3975C29.6655 27.3547 29.8241 27.4313 29.8789 27.6413C29.9169 27.7964 29.9169 27.9582 29.8789 28.1132C29.8643 28.1676 29.8387 28.2185 29.8036 28.2627C29.7686 28.3069 29.7249 28.3435 29.6753 28.3702C29.6256 28.397 29.571 28.4134 29.5147 28.4183C29.4585 28.4233 29.4019 28.4167 29.3482 28.3991C29.2776 28.3758 29.2791 28.3241 29.2791 28.2753C29.2821 28.1485 29.2829 28.0202 29.2829 27.8897Z" fill="#FCFBFB"/>
<path d="M43.5835 27.8946C43.5738 27.8199 43.5738 27.7443 43.5835 27.6695C43.6083 27.578 43.4866 27.4287 43.6827 27.3995C43.9496 27.3589 44.1104 27.4302 44.1683 27.6193C44.2213 27.8025 44.2184 27.9974 44.1601 28.179C44.1082 28.3568 43.791 28.4791 43.6271 28.3965C43.5738 28.3695 43.5805 28.3215 43.5805 28.281C43.5828 28.152 43.5835 28.0237 43.5835 27.8946Z" fill="#FDFDFD"/>
<path d="M25.1541 28.0859C24.9571 28.1272 24.9098 28.0567 24.9789 27.8721C25.0199 27.7429 25.0542 27.6117 25.0819 27.479C25.0917 27.4415 25.109 27.4039 25.1571 27.4039C25.2052 27.4039 25.2165 27.4437 25.2262 27.479C25.2623 27.6103 25.2894 27.7438 25.3315 27.8721C25.3864 28.0402 25.3548 28.1317 25.1541 28.0859Z" fill="#FAFAFA"/>
<path d="M33.5081 28.0703C33.5081 28.2353 33.5013 28.3771 33.3157 28.4237C33.118 28.4732 33.0586 28.4304 33.0564 28.2241C33.0564 28.1716 33.0564 28.1183 33.0564 28.0658C33.0564 27.9082 33.0188 27.7402 33.2773 27.7529C33.5156 27.7642 33.4998 27.9292 33.5081 28.0703Z" fill="#F9F9F8"/>
<path d="M38.7878 28.0723C38.8066 28.2561 38.8164 28.4354 38.5533 28.4264C38.3188 28.4182 38.3361 28.2396 38.3323 28.0828C38.3286 27.9043 38.3564 27.7565 38.5947 27.749C38.878 27.74 38.7645 27.944 38.7878 28.0723Z" fill="#FBFBFB"/>
<path d="M26.2566 28.1102C26.2777 27.9527 26.1754 27.7456 26.4671 27.7531C26.7039 27.7598 26.7084 27.9144 26.7114 28.078C26.7159 28.3345 26.628 28.4426 26.4107 28.4373C26.1349 28.4306 26.316 28.2085 26.2566 28.1102Z" fill="#FBFBFA"/>
<path d="M56.0874 27.59C55.9371 27.5713 55.7958 27.665 55.6409 27.608C55.5891 27.5885 55.5718 27.6515 55.5718 27.6996L55.5718 28.9014C55.5718 28.963 55.5913 29.0005 55.6635 28.999C55.7356 28.9975 55.7537 28.96 55.7529 28.8984C55.7529 28.8527 55.7582 28.8069 55.7529 28.7619C55.7349 28.6269 55.7785 28.5818 55.9266 28.5863C56.2708 28.5953 56.3903 28.4588 56.3926 28.0972C56.3934 27.7806 56.2949 27.6133 56.0874 27.59ZM55.9198 28.4378C55.7582 28.4378 55.7529 28.4258 55.7529 28.1062C55.7612 27.9524 55.6905 27.7528 55.9642 27.7551C56.2009 27.7551 56.1979 27.9314 56.2039 28.0882C56.216 28.3268 56.1152 28.4385 55.9198 28.4378Z" fill="#777876"/>
<path d="M57.5532 28.4687C57.4367 28.3322 57.4781 28.1799 57.4818 28.0373C57.5081 27.5392 57.2165 27.5399 56.8339 27.6172C56.8227 27.6177 56.8118 27.6207 56.802 27.626C56.7921 27.6313 56.7836 27.6387 56.777 27.6477C56.7703 27.6566 56.7658 27.667 56.7637 27.6779C56.7616 27.6889 56.7619 27.7002 56.7647 27.711C56.7723 27.7605 56.8106 27.7642 56.8489 27.7657C56.8873 27.7672 56.9391 27.7657 56.985 27.7657L56.985 27.759C57.0226 27.759 57.0601 27.759 57.0985 27.759C57.2022 27.753 57.2872 27.7852 57.2879 27.9C57.2887 28.0148 57.1827 27.9751 57.1158 27.9916C57.0489 28.0081 56.997 28.0103 56.9369 28.0193C56.7302 28.0493 56.6851 28.1881 56.7114 28.3659C56.7377 28.5437 56.8534 28.5993 57.0211 28.591C57.1676 28.5828 57.309 28.516 57.4638 28.5813C57.5397 28.6128 57.6126 28.5377 57.5532 28.4687ZM57.0549 28.438C57.0348 28.4439 57.0135 28.4448 56.993 28.4406C56.9724 28.4363 56.9532 28.427 56.9372 28.4136C56.9211 28.4001 56.9086 28.3829 56.9008 28.3635C56.893 28.344 56.8902 28.323 56.8925 28.3022C56.8925 28.1199 57.0361 28.1446 57.1481 28.1281C57.2601 28.1116 57.2984 28.1424 57.3022 28.2572C57.3105 28.453 57.1601 28.4192 57.0549 28.438Z" fill="#777877"/>
<path d="M32.2378 28.2644C32.2521 28.4572 32.0995 28.4182 32.0033 28.437C31.9826 28.4425 31.961 28.4429 31.9401 28.4381C31.9193 28.4334 31.9 28.4236 31.8838 28.4097C31.8675 28.3958 31.855 28.3782 31.8471 28.3584C31.8393 28.3386 31.8364 28.3171 31.8387 28.2959C31.8462 28.1264 31.989 28.1421 32.107 28.1271C32.225 28.1121 32.2483 28.1752 32.2378 28.2644Z" fill="#F7F6F6"/>
<path d="M41.5366 28.2647C41.5501 28.459 41.3975 28.4192 41.3013 28.438C41.2807 28.4434 41.2591 28.4438 41.2384 28.4391C41.2176 28.4344 41.1983 28.4247 41.1821 28.4109C41.1659 28.3971 41.1533 28.3796 41.1454 28.3599C41.1375 28.3402 41.1345 28.3188 41.1367 28.2977C41.1449 28.1274 41.287 28.1431 41.4058 28.1281C41.5245 28.1131 41.5486 28.1761 41.5366 28.2647Z" fill="#F7F6F6"/>
<path d="M37.4244 28.04C37.3492 27.9995 37.2139 28.1001 37.2064 27.953C37.1996 27.821 37.2943 27.7527 37.4319 27.7504C37.5695 27.7482 37.6499 27.8112 37.6499 27.9335C37.6499 28.1091 37.4995 27.9943 37.4244 28.04Z" fill="#F3F2F2"/>
<path d="M45.1153 28.04C45.0401 28.0033 44.9026 28.0993 44.9048 27.941C44.9048 27.8037 45.007 27.7512 45.1386 27.7519C45.1654 27.7488 45.1925 27.7516 45.2181 27.7601C45.2436 27.7686 45.267 27.7826 45.2865 27.8012C45.3061 27.8197 45.3212 27.8423 45.331 27.8674C45.3408 27.8925 45.3449 27.9194 45.343 27.9463C45.3348 28.1106 45.1859 27.992 45.1153 28.04Z" fill="#F3F2F1"/>
<path d="M48.915 28.04C48.8399 28.0018 48.7053 28.0963 48.7061 27.9463C48.7058 27.9177 48.7117 27.8895 48.7233 27.8634C48.7349 27.8373 48.752 27.8141 48.7733 27.7951C48.7947 27.7761 48.8198 27.7619 48.8471 27.7535C48.8744 27.745 48.9032 27.7424 48.9316 27.7459C49.0488 27.7459 49.145 27.7925 49.1458 27.9238C49.1458 28.1113 48.9894 27.9928 48.915 28.04Z" fill="#F2F1F0"/>
</g>
<defs>
<clipPath id="clip0_166_286">
<rect width="29" height="60" fill="white" transform="translate(0 29) rotate(-90)"/>
</clipPath>
</defs>
</svg>
