<svg width="250" height="72" viewBox="0 0 250 72" fill="none" xmlns="http://www.w3.org/2000/svg">
<path d="M92.0541 24.3115H95.9163L98.752 36.0144L101.831 24.3115H104.54L107.598 36.0144L110.423 24.3115H114.285L109.672 40.5114H106.011L103.217 29.5916L100.445 40.5114H96.6675L92.033 24.3115H92.0541Z" fill="#001E61"/>
<path d="M115.301 35.7928C114.878 34.7453 114.666 33.6237 114.666 32.4174C114.666 31.2112 114.878 30.0896 115.301 29.042C115.724 28.0051 116.306 27.1162 117.047 26.3861C117.788 25.656 118.687 25.0847 119.735 24.6614C120.782 24.2487 121.914 24.0371 123.131 24.0371C124.74 24.0371 126.189 24.3969 127.48 25.0952C128.76 25.8042 129.766 26.7988 130.496 28.0791C131.226 29.3595 131.586 30.7985 131.586 32.4174C131.586 34.0364 131.226 35.4754 130.496 36.7557C129.766 38.0361 128.76 39.0307 127.48 39.7396C126.2 40.4486 124.75 40.8083 123.131 40.8083C121.925 40.8083 120.793 40.5967 119.735 40.1841C118.687 39.7608 117.788 39.1894 117.047 38.4593C116.306 37.7292 115.724 36.8404 115.301 35.8034V35.7928ZM118.211 32.4174C118.211 33.9623 118.655 35.2426 119.565 36.2478C120.475 37.2531 121.66 37.7715 123.142 37.7715C124.623 37.7715 125.798 37.2636 126.697 36.2478C127.597 35.232 128.052 33.9517 128.052 32.4174C128.052 30.8832 127.597 29.5923 126.697 28.587C125.798 27.5818 124.613 27.0739 123.142 27.0739C121.671 27.0739 120.465 27.5818 119.565 28.587C118.666 29.5923 118.222 30.8726 118.222 32.4174H118.211Z" fill="#001E61"/>
<path d="M134.02 40.5114V24.3115H141.596C143.257 24.3115 144.58 24.7983 145.574 25.7717C146.569 26.7452 147.066 27.9938 147.066 29.5281C147.066 30.2053 146.96 30.8401 146.759 31.4115C146.558 31.9935 146.273 32.4696 145.923 32.8506C145.574 33.2315 145.204 33.5489 144.791 33.8029C144.389 34.0463 143.955 34.2261 143.49 34.3425L147.151 40.5114H143.162L139.987 34.7552H137.459V40.5114H134.009H134.02ZM137.469 31.7184H141.109C141.807 31.7184 142.379 31.5173 142.834 31.1153C143.289 30.7132 143.511 30.1735 143.511 29.4963C143.511 28.8191 143.289 28.3112 142.834 27.9303C142.379 27.5388 141.807 27.3378 141.109 27.3378H137.469V31.7184Z" fill="#001E61"/>
<path d="M149.479 40.5114V24.3115H152.928V37.4746H159.795V40.5114H149.479Z" fill="#001E61"/>
<path d="M162.124 40.5114V24.3115H168.504C171.044 24.3115 173.117 25.0522 174.705 26.5442C176.292 28.0255 177.085 29.9831 177.085 32.4062C177.085 34.0251 176.726 35.443 176.006 36.6704C175.287 37.9084 174.271 38.8501 172.98 39.5167C171.689 40.1834 170.197 40.5114 168.525 40.5114H162.124ZM165.573 37.4746H168.515C169.552 37.4746 170.462 37.2418 171.245 36.7762C172.028 36.3106 172.62 35.6969 173.001 34.9351C173.393 34.1732 173.594 33.3267 173.594 32.3956C173.594 30.9142 173.149 29.7079 172.271 28.7556C171.382 27.8139 170.144 27.3378 168.546 27.3378H165.584V37.464L165.573 37.4746Z" fill="#001E61"/>
<path d="M184.682 38.2474L186.576 35.5492C187.201 36.2052 187.952 36.7448 188.841 37.1575C189.719 37.5702 190.682 37.7818 191.729 37.7818C192.639 37.7818 193.338 37.6125 193.814 37.2633C194.301 36.9141 194.533 36.4803 194.533 35.9618C194.533 35.6232 194.396 35.3375 194.131 35.0942C193.867 34.8508 193.507 34.6709 193.073 34.5439C192.639 34.4275 192.142 34.29 191.581 34.1313C191.021 33.9725 190.46 33.835 189.867 33.708C189.285 33.581 188.714 33.3906 188.153 33.1366C187.592 32.8827 187.105 32.597 186.661 32.269C186.227 31.9409 185.878 31.4965 185.603 30.9252C185.328 30.3644 185.201 29.7189 185.201 28.9888C185.201 27.6026 185.762 26.4387 186.883 25.497C188.005 24.5553 189.486 24.0791 191.349 24.0791C193.93 24.0791 196.036 24.8198 197.644 26.3117L195.74 28.883C195.105 28.2904 194.364 27.8566 193.549 27.5603C192.724 27.2641 191.888 27.1159 191.042 27.1159C190.322 27.1159 189.761 27.264 189.359 27.5497C188.957 27.8354 188.756 28.2164 188.756 28.7031C188.756 28.9994 188.894 29.2639 189.158 29.4755C189.423 29.6977 189.783 29.867 190.216 29.9834C190.661 30.1104 191.158 30.2374 191.719 30.3749C192.28 30.5125 192.851 30.65 193.422 30.7982C193.994 30.9463 194.565 31.1368 195.115 31.4013C195.666 31.6658 196.163 31.9621 196.597 32.3007C197.031 32.6393 197.38 33.0943 197.644 33.6657C197.909 34.2371 198.036 34.8825 198.036 35.6126C198.036 37.1575 197.486 38.4061 196.375 39.369C195.264 40.3319 193.666 40.808 191.581 40.808C188.703 40.808 186.407 39.9509 184.682 38.2474Z" fill="#001E61"/>
<path d="M199.03 27.3483V24.3115H211.97V27.3483H207.241V40.5114H203.791V27.3483H199.04H199.03Z" fill="#001E61"/>
<path d="M210.923 40.5114L217.166 24.3115H221.494L227.737 40.5114H223.822L222.806 37.7708H215.865L214.849 40.5114H210.934H210.923ZM216.796 34.734H221.843L219.314 27.761L216.785 34.734H216.796Z" fill="#001E61"/>
<path d="M229.219 40.5114V24.3115H236.795C238.456 24.3115 239.779 24.7983 240.773 25.7717C241.768 26.7452 242.265 27.9938 242.265 29.5281C242.265 30.2053 242.159 30.8401 241.958 31.4115C241.757 31.9935 241.472 32.4696 241.122 32.8506C240.773 33.2315 240.392 33.5489 239.99 33.8029C239.578 34.0463 239.144 34.2261 238.689 34.3425L242.35 40.5114H238.371L235.197 34.7552H232.668V40.5114H229.219ZM232.668 31.7184H236.308C237.006 31.7184 237.578 31.5173 238.033 31.1153C238.488 30.7132 238.71 30.1735 238.71 29.4963C238.71 28.8191 238.488 28.3112 238.033 27.9303C237.578 27.5388 237.006 27.3378 236.308 27.3378H232.668V31.7184Z" fill="#001E61"/>
<path d="M249.101 19.0418C248.521 18.4625 247.752 18.1426 246.93 18.1426C246.109 18.1426 245.339 18.4625 244.76 19.0418C244.181 19.6211 243.861 20.3907 243.861 21.2121C243.861 22.0335 244.181 22.8031 244.76 23.3824C245.339 23.9617 246.109 24.2816 246.93 24.2816C247.752 24.2816 248.521 23.9617 249.101 23.3824C249.68 22.8031 250 22.0335 250 21.2121C250 20.3907 249.68 19.6211 249.101 19.0418ZM246.93 23.9444C245.426 23.9444 244.198 22.7166 244.198 21.2121C244.198 19.7076 245.426 18.4798 246.93 18.4798C248.435 18.4798 249.663 19.7076 249.663 21.2121C249.663 22.7166 248.435 23.9444 246.93 23.9444Z" fill="#001E61"/>
<path d="M248.15 20.6506C248.15 20.3912 248.064 20.1837 247.917 20.028C247.735 19.8464 247.45 19.7427 247.095 19.7427H245.824V22.5874H246.326V21.593H246.949L247.649 22.5874H248.237L247.467 21.5066C247.865 21.3942 248.142 21.1088 248.142 20.6419L248.15 20.6506ZM246.326 21.1521V20.201H247.052C247.424 20.201 247.64 20.3652 247.64 20.6765C247.64 20.9705 247.415 21.1607 247.052 21.1607H246.317L246.326 21.1521Z" fill="#001E61"/>
<path d="M94.7803 58.3913V49.8765H100.355V50.8225H95.8414V53.5585H100.265V54.5046H95.8414V58.3913H94.7803Z" fill="#001E61"/>
<path d="M100.917 58.3913L104.343 49.8765H105.66L109.074 58.3913H107.859L107.105 56.4991H102.873L102.119 58.3913H100.904H100.917ZM103.206 55.553H106.824L105.008 50.9632L103.206 55.553Z" fill="#001E61"/>
<path d="M110.186 55.9365C109.956 55.3867 109.841 54.7858 109.841 54.1466C109.841 53.5073 109.956 52.9064 110.186 52.3567C110.416 51.8069 110.723 51.3339 111.107 50.9631C111.503 50.5796 111.963 50.2855 112.5 50.0682C113.037 49.8508 113.613 49.7485 114.214 49.7485C115.582 49.7485 116.655 50.3111 117.435 51.4362L116.553 51.9348C116.31 51.564 115.965 51.2572 115.556 51.0398C115.147 50.8225 114.687 50.6946 114.214 50.6946C113.28 50.6946 112.5 51.0143 111.874 51.6663C111.247 52.3183 110.941 53.1366 110.941 54.1594C110.941 54.8242 111.081 55.4123 111.375 55.9493C111.657 56.4735 112.053 56.8953 112.551 57.1766C113.05 57.4707 113.613 57.6113 114.226 57.6113C114.699 57.6113 115.147 57.4963 115.569 57.2661C115.991 57.036 116.323 56.7419 116.579 56.3712L117.474 56.857C116.643 57.9949 115.569 58.5574 114.239 58.5574C113.638 58.5574 113.063 58.4551 112.526 58.2378C111.989 58.0204 111.529 57.7264 111.132 57.3428C110.749 56.9593 110.429 56.499 110.212 55.9493L110.186 55.9365Z" fill="#001E61"/>
<path d="M118.816 58.3913V49.8765H119.877V58.3913H118.816Z" fill="#001E61"/>
<path d="M121.718 58.3913V49.8765H122.779V57.4452H126.73V58.3913H121.718Z" fill="#001E61"/>
<path d="M128.149 58.3913V49.8765H129.21V58.3913H128.149Z" fill="#001E61"/>
<path d="M130.617 50.8357V49.8896H137.073V50.8357H134.375V58.4045H133.314V50.8357H130.629H130.617Z" fill="#001E61"/>
<path d="M138.467 58.3913V49.8765H139.528V58.3913H138.467Z" fill="#001E61"/>
<path d="M141.509 58.3913V49.8765H147.083V50.8225H142.57V53.5585H146.994V54.5046H142.57V57.4452H147.083V58.3913H141.509Z" fill="#001E61"/>
<path d="M148.26 57.19L148.899 56.3717C149.206 56.7297 149.59 57.0238 150.037 57.2539C150.497 57.484 150.996 57.5991 151.559 57.5991C151.917 57.5991 152.236 57.548 152.505 57.4585C152.773 57.369 152.991 57.2411 153.131 57.1005C153.285 56.9471 153.387 56.7936 153.451 56.6274C153.515 56.4612 153.553 56.295 153.553 56.116C153.553 55.8859 153.502 55.6813 153.387 55.5024C153.272 55.3234 153.118 55.1827 152.927 55.0677C152.735 54.9526 152.505 54.8631 152.249 54.7864C151.993 54.7097 151.725 54.633 151.456 54.5563C151.175 54.4796 150.907 54.3901 150.625 54.3134C150.344 54.2367 150.088 54.1344 149.833 54.0065C149.577 53.8914 149.36 53.738 149.168 53.5846C148.976 53.4312 148.823 53.2138 148.708 52.9709C148.593 52.728 148.541 52.434 148.541 52.1015C148.541 51.4112 148.823 50.8358 149.372 50.4012C149.922 49.9665 150.625 49.7363 151.469 49.7363C152.709 49.7363 153.719 50.1327 154.474 50.9253L153.834 51.7052C153.233 51.0276 152.415 50.6824 151.38 50.6824C150.868 50.6824 150.459 50.8103 150.127 51.066C149.794 51.3217 149.628 51.6541 149.628 52.0504C149.628 52.255 149.679 52.434 149.794 52.5874C149.909 52.7408 150.063 52.8687 150.255 52.9709C150.446 53.0732 150.676 53.1499 150.932 53.2266C151.188 53.3033 151.456 53.3801 151.738 53.4568C152.019 53.5335 152.3 53.623 152.569 53.6997C152.85 53.7764 153.106 53.8914 153.361 54.0193C153.617 54.1471 153.834 54.3006 154.026 54.4668C154.218 54.633 154.371 54.8503 154.486 55.1188C154.601 55.3873 154.653 55.6814 154.653 56.0265C154.653 56.3717 154.589 56.653 154.474 56.9471C154.359 57.2283 154.18 57.4968 153.949 57.7397C153.707 57.9826 153.387 58.1744 152.965 58.3151C152.543 58.4557 152.057 58.5324 151.507 58.5324C150.804 58.5324 150.178 58.4046 149.628 58.1616C149.078 57.9187 148.618 57.5863 148.247 57.1644L148.26 57.19Z" fill="#001E61"/>
<path d="M159.549 58.3913V49.8765H161.058L163.717 56.4352L166.363 49.8765H167.885V58.3913H166.824V51.2317L163.934 58.3913H163.499L160.597 51.2317V58.3913H159.536H159.549Z" fill="#001E61"/>
<path d="M168.983 58.3913L172.41 49.8765H173.727L177.14 58.3913H175.926L175.171 56.4991H170.94L170.185 58.3913H168.971H168.983ZM171.272 55.553H174.89L173.075 50.9632L171.272 55.553Z" fill="#001E61"/>
<path d="M178.254 58.3913V49.8765H179.341L184.237 56.5247V49.8765H185.298V58.3913H184.276L179.315 51.6024V58.3913H178.254Z" fill="#001E61"/>
<path d="M186.397 58.3913L189.824 49.8765H191.141L194.554 58.3913H193.34L192.585 56.4991H188.353L187.599 58.3913H186.385H186.397ZM188.686 55.553H192.304L190.489 50.9632L188.686 55.553Z" fill="#001E61"/>
<path d="M195.667 55.9493C195.437 55.3995 195.322 54.7986 195.322 54.1466C195.322 53.4945 195.437 52.8936 195.667 52.3439C195.897 51.7941 196.204 51.3211 196.6 50.9503C196.996 50.5796 197.457 50.2727 197.994 50.0682C198.531 49.8508 199.093 49.7485 199.694 49.7485C201.049 49.7485 202.162 50.2727 203.018 51.3339L202.162 51.8709C201.893 51.5129 201.535 51.2316 201.1 51.0143C200.666 50.7969 200.193 50.6946 199.694 50.6946C198.761 50.6946 197.968 51.0143 197.354 51.6663C196.728 52.3055 196.421 53.1366 196.421 54.1466C196.421 54.8114 196.562 55.4123 196.856 55.9365C197.137 56.4734 197.533 56.8826 198.032 57.1766C198.531 57.4707 199.093 57.6113 199.707 57.6113C200.18 57.6113 200.615 57.5218 201.024 57.3428C201.433 57.1638 201.765 56.9465 202.008 56.6908V54.952H199.093V54.0059H203.069V57.0871C202.66 57.5474 202.162 57.9054 201.586 58.1611C201.011 58.4296 200.384 58.5574 199.707 58.5574C199.106 58.5574 198.531 58.4551 198.006 58.2378C197.482 58.0204 197.009 57.7264 196.613 57.3428C196.216 56.9593 195.91 56.499 195.68 55.9365L195.667 55.9493Z" fill="#001E61"/>
<path d="M204.769 58.3913V49.8765H210.344V50.8225H205.83V53.5585H210.254V54.5046H205.83V57.4452H210.344V58.3913H204.769Z" fill="#001E61"/>
<path d="M212.032 58.3913V49.8765H213.54L216.2 56.4352L218.846 49.8765H220.368V58.3913H219.306V51.2317L216.417 58.3913H215.982L213.08 51.2317V58.3913H212.019H212.032Z" fill="#001E61"/>
<path d="M222.349 58.3913V49.8765H227.923V50.8225H223.41V53.5585H227.834V54.5046H223.41V57.4452H227.923V58.3913H222.349Z" fill="#001E61"/>
<path d="M229.598 58.3913V49.8765H230.685L235.582 56.5247V49.8765H236.643V58.3913H235.62L230.659 51.6024V58.3913H229.598Z" fill="#001E61"/>
<path d="M238.049 50.8357V49.8896H244.505V50.8357H241.795V58.4045H240.734V50.8357H238.049Z" fill="#001E61"/>
<path d="M50.8837 62.2632L36.895 46.0894L23.084 62.6291V65.1696V71.7144L26.5341 67.7207L28.1651 66.0792L36.895 55.9066L46.1581 66.0792L47.4336 67.7207L50.8837 71.7144V66.4452V62.2632Z" fill="#009ABF"/>
<path d="M31.9811 29.0049L23.084 33.5528V62.628L31.9811 52.0894V29.0049Z" fill="#001E61"/>
<path d="M42.3435 29.3726C42.3435 37.0465 42.3435 44.71 42.333 52.3839C45.1872 55.6772 48.0414 58.981 50.8852 62.2743V33.9205L42.3435 29.3726Z" fill="#001E61"/>
<path d="M15.8081 51.9014C15.8604 55.2365 15.9126 58.5716 15.9649 61.8963C16.5295 62.44 17.1882 63.0254 17.9409 63.6005C18.9864 64.4055 20.0005 65.0328 20.8997 65.5346C20.7742 60.9867 20.6592 56.4493 20.5337 51.9014H15.8081Z" fill="#001E61"/>
<path d="M53.2889 52.2783C53.2785 56.5753 53.268 60.8723 53.2576 65.1797C54.0208 64.7615 54.8572 64.2388 55.7249 63.601C56.5927 62.9633 57.3245 62.336 57.9518 61.7401V52.2888H53.2994L53.2889 52.2783Z" fill="#001E61"/>
<path d="M52.1591 15.5499L41.0768 13.3752L44.161 8.46142L39.4354 11.3784L36.8948 0.285645L34.7098 11.3784L29.8064 8.46142L32.8906 13.3752L21.8083 15.5499L32.8906 18.1009L29.8064 22.8265L34.7098 19.92L36.8948 31.0023L39.4354 19.92L44.161 22.8265L41.0768 18.1009L52.1591 15.5499Z" fill="#009ABF"/>
<path d="M0 37.3692C0 50.0929 6.35661 60.9974 15.8079 67.7199C16.7175 68.2636 17.6271 68.9954 18.7144 69.5391C19.258 69.905 19.9899 70.0827 20.8995 70.8146V65.5453C19.2685 64.6357 17.4493 63.3602 16.1738 62.0951C9.45128 56.094 5.09157 47.5523 5.09157 37.7351C5.09157 21.5613 17.0834 8.10575 32.5358 5.74293L33.4454 0.651367C14.5428 2.28234 0 18.1007 0 37.3692Z" fill="#009ABF"/>
<path d="M41.0774 0.285645L41.987 5.37721C57.4394 7.91776 69.0653 21.1851 69.0653 37.3694C69.0653 47.1866 64.8833 55.7283 57.9831 61.7294C56.3521 63.0049 54.8884 64.27 53.2574 65.1795V70.637C53.8011 70.2711 54.8884 69.7275 55.4425 69.3615C56.3521 68.8179 57.2617 68.4519 57.9831 67.7305C67.4343 61.008 73.7909 49.7376 73.7909 37.3798C74.3346 18.1113 59.7918 2.30345 41.0774 0.306555V0.285645Z" fill="#009ABF"/>
</svg>
