<svg width="101" height="28" viewBox="0 0 101 28" fill="none" xmlns="http://www.w3.org/2000/svg">
<g clip-path="url(#clip0_166_266)">
<path d="M0.471191 2.88622C0.471191 2.88622 2.78935 2.74664 6.6943 1.40636C11.6791 -0.304353 23.3364 -2.2452 26.9637 7.78592C29.3005 14.2571 24.5568 20.834 24.4226 23.1104C24.2597 25.7284 24.5883 26.9239 24.5883 26.9239L20.9592 27.9553C20.9592 27.9553 20.1073 25.3859 20.6262 22.589C21.3035 18.9515 24.579 14.0538 24.2416 10.7465C23.9058 7.4411 22.6592 2.09246 15.8723 0.379158C12.4545 -0.481303 8.73016 3.33586 6.01391 4.2495C3.30528 5.16474 1.37474 5.8471 1.37474 5.8471L0.471191 2.88622Z" fill="#E81D26"/>
<path d="M6.70377 1.44459C8.33795 0.883696 22.7693 -3.69402 26.9347 7.80187C27.3824 9.04644 27.5684 10.3002 27.5684 11.5184C27.5684 14.6959 26.3281 17.6729 25.4341 19.8377C24.8783 21.1824 24.4229 22.5713 24.2708 23.4033C24.0619 24.5667 24.5375 26.7436 24.5498 26.9006C24.4934 26.9159 21.0525 27.8913 20.9811 27.9155C20.9262 27.7398 20.4947 26.3091 20.4947 24.4741C20.4947 23.8799 20.5443 23.2429 20.662 22.6019C20.9363 21.1005 21.6771 19.3482 22.3884 17.6561C23.3334 15.4108 24.3022 13.1063 24.3022 11.2328C24.3022 11.0639 24.2959 10.9002 24.2803 10.7448C23.7023 5.02313 20.9551 1.62556 15.8756 0.341199C13.6009 -0.229471 11.1728 1.2731 9.02909 2.59758C7.93817 3.27332 6.91623 3.91112 6.00331 4.21486C6.00331 4.21486 1.76869 5.67718 1.3997 5.80066C1.37819 5.73079 0.54431 3.00064 0.516643 2.92301C0.751885 2.90447 3.0299 2.70596 6.70377 1.44459ZM6.68583 1.3743C2.83437 2.69546 0.493993 2.85186 0.468332 2.85214H0.420166L1.35196 5.89078L6.02529 4.28558C6.94089 3.97624 7.97602 3.33628 9.06533 2.66125C11.1974 1.34354 13.6101 -0.150841 15.8617 0.415372C20.9067 1.68392 23.6358 5.06712 24.2074 10.7494C24.3997 12.679 23.3397 15.194 22.3206 17.6244C21.6098 19.3224 20.8682 21.0785 20.5878 22.5875C20.0779 25.357 20.9162 27.9457 20.9246 27.9682L20.9332 28L24.6275 26.9549V26.9243C24.6275 26.9081 24.222 25.4272 24.4493 23.139C24.533 22.2537 24.949 21.2036 25.4998 19.8681C26.7488 16.8561 28.6378 12.3025 26.9957 7.77631C22.8145 -3.78918 8.32476 0.80909 6.68583 1.3743Z" fill="#E81D26"/>
<path d="M1.8335 7.32709C1.8335 7.32709 7.03604 4.93185 11.0006 2.65779C15.5733 0.0283996 28.4252 -2.92629 32.0516 7.10887C34.3908 13.5756 30.9849 19.6712 30.3621 22.2568C29.8328 24.4739 30.4187 25.533 30.4187 25.533L26.7888 26.562C26.7888 26.562 26.2171 25.5011 26.7382 22.7099C27.4147 19.0712 29.6772 16.5601 29.6772 10.6297C29.6772 7.30624 27.2613 1.61118 20.3954 0.265004C16.3213 -0.535946 13.0613 2.38295 10.883 4.24977C7.8318 6.87659 2.39443 10.064 2.39443 10.064L1.8335 7.32709Z" fill="#E81D26"/>
<path d="M26.0275 0.959114C28.9098 2.02297 30.924 4.09564 32.0165 7.11718C32.6054 8.74482 32.8347 10.3366 32.8347 11.8523C32.8347 15.1288 31.7777 18.0588 30.9944 20.2295C30.7025 21.0288 30.456 21.7135 30.3322 22.2497C30.1592 22.947 30.1043 23.5341 30.1043 24.0064C30.1043 24.9235 30.3136 25.4013 30.371 25.5124C30.2901 25.5336 26.8674 26.5008 26.8101 26.5167C26.7527 26.3991 26.5496 25.8845 26.5496 24.8265C26.5496 24.2739 26.6131 23.579 26.7682 22.7189C27.0129 21.404 27.4649 20.2419 27.938 19.011C28.7716 16.8608 29.7084 14.4248 29.7084 10.6302C29.7084 7.18099 27.2298 1.56413 20.4019 0.225866C20.2959 0.204017 20.1929 0.19683 20.0874 0.182743C22.0916 0.0763712 24.1465 0.265684 26.0275 0.959114ZM11.0202 2.68593C12.1127 2.06063 13.7167 1.40013 15.5632 0.906647C13.7521 1.7408 12.221 3.05421 11.0335 4.07767L10.8606 4.22717C7.9599 6.71327 2.85723 9.74912 2.42502 10.0053C2.40022 9.91075 1.88573 7.40135 1.87641 7.34702C2.16483 7.21048 7.19206 4.88725 11.0202 2.68593ZM19.1913 0.173974C18.3144 0.258614 17.443 0.393525 16.5814 0.578043C17.4044 0.306364 18.2746 0.150687 19.1913 0.173974ZM19.6992 0.12697C18.3922 0.00191097 17.1805 0.260366 16.0592 0.711439C13.9863 1.21555 12.1778 1.93515 10.9785 2.62757C7.06421 4.87646 1.87011 7.26928 1.82394 7.29269L1.79126 7.3049L2.37055 10.1206L2.4157 10.099C2.47161 10.0645 7.88231 6.8771 10.9071 4.27676L11.0805 4.13057C12.3714 3.01741 14.0713 1.57937 16.0841 0.777847C17.2309 0.500852 18.441 0.28969 19.6902 0.19683C19.9176 0.220835 20.1533 0.255046 20.3903 0.299751C27.1763 1.62753 29.6325 7.20398 29.6325 10.6302C29.6325 14.414 28.6975 16.8414 27.8715 18.9881C27.3955 20.2195 26.9401 21.3888 26.6969 22.7031C26.536 23.5867 26.4785 24.2847 26.4785 24.8455C26.4785 26.0469 26.7404 26.5494 26.7575 26.5808L26.7711 26.6043L30.47 25.5579L30.4521 25.5159C30.4452 25.5034 29.8811 24.4341 30.4005 22.2665C30.5281 21.7399 30.7752 21.049 31.0603 20.2598C32.2102 17.0674 33.9505 12.2421 32.0861 7.09288C30.9845 4.04921 28.9576 1.96346 26.0523 0.892272C24.0411 0.148387 21.8313 -0.0258319 19.6992 0.12697Z" fill="#E81D26"/>
<path d="M12.605 15.616H6.60757C6.62432 15.7885 6.64797 15.9602 6.66876 16.1304H13.0458C12.8845 15.9781 12.7297 15.8072 12.605 15.616ZM16.8732 16.1304H21.5433C21.5699 15.9601 21.5945 15.7886 21.6054 15.616H17.3179C17.1931 15.8065 17.0435 15.9795 16.8732 16.1304ZM7.75421 19.0715H20.4559C20.5689 18.905 20.6672 18.7357 20.7642 18.554H7.45335C7.54663 18.7357 7.64888 18.905 7.75421 19.0715ZM8.49639 20.0554H19.7194C19.8686 19.8857 20.0095 19.7176 20.1379 19.5346H8.07034C8.20366 19.7178 8.34916 19.8857 8.49639 20.0554ZM14.9603 16.894C14.5163 16.894 14.1012 16.7805 13.7237 16.5952H6.74701C6.78556 16.7724 6.82757 16.9398 6.87563 17.1128H21.3391C21.3856 16.9398 21.4332 16.7724 21.4707 16.5953H16.1993C15.8273 16.7803 15.4088 16.894 14.9603 16.894ZM7.23216 18.0929H20.9808C21.0598 17.9233 21.122 17.749 21.1839 17.5736H7.03046C7.09076 17.749 7.15588 17.9233 7.23216 18.0929ZM9.54239 21.0367H18.6714C18.881 20.8717 19.0834 20.6977 19.278 20.515H8.93318C9.12817 20.6981 9.33148 20.8723 9.54239 21.0367ZM14.1012 22.5895C14.5457 22.5895 14.9782 22.5477 15.398 22.4787H12.8179C13.2389 22.5477 13.664 22.5895 14.1012 22.5895ZM11.2128 22.0134H16.9971C17.3442 21.8686 17.6773 21.688 17.9952 21.4943H10.2169C10.5357 21.688 10.8655 21.8688 11.2128 22.0134ZM9.20612 9.27091H19.01C18.7962 9.08766 18.5794 8.91615 18.3438 8.75863H9.86696C9.63703 8.91615 9.4197 9.08778 9.20612 9.27091ZM8.25321 10.2531H19.9606C19.8159 10.0743 19.6634 9.90186 19.5037 9.73637H8.71484C8.55265 9.90097 8.39859 10.0734 8.25321 10.2531ZM17.5659 15.1518H21.6317C21.6317 15.1041 21.636 15.0627 21.636 15.019C21.636 14.8892 21.6241 14.7613 21.6146 14.6343H17.7268C17.689 14.8126 17.6318 14.9865 17.5659 15.1518ZM12.1982 14.6343H6.59824C6.59052 14.7614 6.57715 14.8892 6.57715 15.0191C6.57715 15.0627 6.58273 15.1043 6.58273 15.1518H12.3599C12.2887 14.9852 12.2345 14.8119 12.1982 14.6343ZM7.71221 11.2343H14.716C14.7952 11.2282 14.8774 11.208 14.9603 11.208C15.0477 11.208 15.1254 11.2282 15.2136 11.2343H20.623C20.5221 11.0567 20.4199 10.8847 20.3038 10.7153H8.04569C7.99893 10.8489 7.75267 11.1402 7.70924 11.2342L7.71221 11.2343ZM10.6401 8.29461H17.5705C17.1729 8.08556 16.7634 7.90892 16.3292 7.77637H11.8821C11.4544 7.90892 11.0384 8.08556 10.6401 8.29461ZM12.1362 14.0543C12.1362 13.9178 12.1595 13.7859 12.1781 13.654H6.70346C6.675 13.827 6.64862 14.0004 6.62432 14.1741H12.1517C12.1503 14.1322 12.1362 14.095 12.1362 14.0543ZM17.7874 14.0543C17.7874 14.095 17.7759 14.1322 17.7759 14.1741H21.5853C21.5666 13.9996 21.5402 13.8261 21.5062 13.654H17.7518C17.7671 13.7859 17.7874 13.9178 17.7874 14.0543ZM12.5068 12.6764H6.95014C6.89251 12.8456 6.84937 13.0184 6.80725 13.1919H12.2828C12.3447 13.0135 12.4144 12.8454 12.5068 12.6764ZM17.6419 13.1919H21.4072C21.3667 13.0181 21.3191 12.8462 21.2645 12.6764H17.4234C17.5122 12.8456 17.5874 13.0135 17.6419 13.1919ZM17.1011 12.2132H21.0972C21.029 12.0384 20.9477 11.8668 20.8634 11.6951H16.5441C16.7539 11.8395 16.9383 12.0221 17.1011 12.2132ZM13.382 11.6949H7.52174C7.43957 11.8667 7.32348 12.0384 7.2529 12.2131H12.8222C12.9884 12.0219 13.173 11.8393 13.382 11.6949Z" fill="#2DA54B"/>
<path d="M14.4002 9.60869C14.4002 9.60869 18.1022 7.58733 16.3214 5.96041C15.114 4.86767 12.3602 8.53605 11.8316 10.1418C10.7309 13.4816 8.05569 16.3275 8.05569 16.3275C8.05569 16.3275 10.9016 20.3071 12.8182 20.0862C14.7318 19.8638 15.197 17.8097 15.197 17.8097H17.1106C17.1106 17.8097 14.8777 21.6416 11.1183 22.145C8.61963 22.4785 5.80091 18.8389 5.80091 18.8389C5.80091 18.8389 3.97975 20.0985 2.9585 20.5509C1.93596 20.9999 0.228201 20.9616 0.133588 20.2016C-0.204724 17.2423 5.22405 16.7918 5.22405 16.7918C5.22405 16.7918 7.2531 11.1924 9.86436 8.1235C12.6989 4.7866 16.5511 3.22121 18.0168 4.93192C19.4874 6.64683 18.3657 8.66271 17.1106 9.60869C15.3082 10.9793 14.4002 9.60869 14.4002 9.60869Z" fill="#E81D26"/>
<path d="M0.493564 20.5361C0.340463 20.4417 0.268213 20.333 0.233952 20.2017C0.110095 19.6992 0.338457 19.1382 0.691107 18.7045C1.91061 17.2077 5.19898 16.9148 5.2374 16.9148L5.31109 16.9039L5.33502 16.8312C5.35696 16.778 7.3837 11.2155 9.94838 8.20184C11.9121 5.90309 14.4573 4.36357 16.2966 4.3548C17.0018 4.3548 17.5487 4.57789 17.9251 5.01459C18.4366 5.60711 18.6565 6.27294 18.5792 6.99397C18.4629 8.07841 17.7051 9.0123 17.0359 9.51409C16.4345 9.97264 15.8752 10.1612 15.3746 10.0812C14.9716 10.0099 14.7099 9.77932 14.5873 9.65093C15.0787 9.35568 16.7763 8.27589 16.9194 7.09257C16.9248 7.04086 16.9248 6.98849 16.9248 6.93732C16.9248 6.54722 16.7491 6.18698 16.3988 5.87218C16.154 5.6498 15.8457 5.58699 15.4814 5.68114C14.042 6.06151 12.1259 8.85144 11.7162 10.103C10.6385 13.377 7.99879 16.2184 7.97401 16.242L7.90135 16.3154L7.96011 16.4005C8.07935 16.5701 10.8608 20.4329 12.8287 20.2049C14.5706 20.0068 15.1609 18.3394 15.2816 17.9294H16.8894C16.3943 18.6927 14.2884 21.5926 11.1013 22.0206C8.70697 22.3441 5.92105 18.8007 5.89468 18.7623L5.824 18.6726L5.72896 18.7358C5.71161 18.7516 3.91196 19.9966 2.91308 20.4341C2.14456 20.7784 1.06641 20.8921 0.493564 20.5361ZM16.2966 4.11331C14.3922 4.11619 11.772 5.69983 9.77324 8.04516C7.33866 10.9079 5.38634 16.0169 5.1329 16.6788C4.62385 16.7286 1.694 17.0827 0.502309 18.554C0.16586 18.9609 0 19.4267 0 19.9325C0 20.0288 0.00157691 20.1204 0.0108949 20.2165C0.0374152 20.425 0.168296 20.6054 0.38519 20.7366C0.96319 21.0662 2.16506 21.0366 3.00611 20.6639C3.91354 20.2618 5.39738 19.2585 5.77541 19.0019C6.22623 19.5612 8.78136 22.578 11.1281 22.2664C14.9114 21.7571 17.1941 17.9094 17.214 17.8711L17.3178 17.6887H15.0942L15.0787 17.7821C15.0734 17.8008 14.6061 19.7561 12.801 19.9636C11.118 20.1547 8.61566 16.8687 8.2173 16.3351C8.62653 15.8826 10.9485 13.2249 11.9409 10.1792C12.3461 8.95653 14.2263 6.2646 15.5426 5.9189C15.8318 5.84127 16.0541 5.88612 16.2369 6.05085C16.5756 6.36004 16.7229 6.69109 16.6764 7.06397C16.5266 8.29603 14.3674 9.49544 14.3426 9.50635L14.2263 9.56628L14.2993 9.68042C14.3148 9.70068 14.6557 10.2018 15.3262 10.3188C15.8983 10.417 16.5197 10.2087 17.1837 9.71235C17.8926 9.17243 18.7 8.1826 18.818 7.0203C18.9022 6.22969 18.663 5.49945 18.1118 4.8559C17.6926 4.36429 17.0667 4.11029 16.2966 4.11331Z" fill="#E81D26"/>
<path d="M12.8811 14.2452C12.8811 14.1391 12.8907 14.0308 12.902 13.9268C12.9285 13.7287 13.2237 13.7697 13.1965 13.9689C13.1842 14.0605 13.1778 14.1528 13.1773 14.2452C13.1773 14.4441 12.8811 14.4441 12.8811 14.2452ZM12.9472 13.4898C13.1865 12.5176 14.0559 11.7949 15.0989 11.7949C15.4721 11.7949 15.8208 11.8843 16.1289 12.0465C16.3042 12.1369 16.1656 12.4056 15.9927 12.3124C15.7215 12.1727 15.4226 12.0918 15.0988 12.0918C14.2019 12.0918 13.4406 12.7198 13.2386 13.564C13.1895 13.7555 12.8967 13.6827 12.9472 13.4898ZM17.2485 13.952C17.2485 14.0957 17.2322 14.2387 17.2046 14.3782C17.1659 14.5763 16.872 14.5185 16.9124 14.3215C16.9332 14.2013 16.9473 14.0775 16.9473 13.9521C16.9473 13.7499 17.2485 13.7497 17.2485 13.952ZM17.11 14.7293C16.7947 15.5776 15.9741 16.1816 15.0259 16.1816C14.8191 16.1816 14.6214 16.1605 14.4339 16.1051C14.2448 16.0516 14.3255 15.765 14.5146 15.8139C14.6787 15.8628 14.8476 15.8844 15.0259 15.8844C15.8488 15.8844 16.5589 15.3605 16.8294 14.6226C16.8991 14.4391 17.1804 14.542 17.11 14.7293Z" fill="#E81D26"/>
<path d="M63.3608 18.7481C64.4652 19.1509 67.0211 17.3163 67.5208 16.946L67.5956 16.8919L67.8778 15.7237L67.4097 15.9195C66.9789 16.0971 66.3949 16.1963 66.2749 16.0613C66.2226 16.0065 66.2036 15.7726 66.4805 15.2529L71.0344 7.17711L71.1758 6.96384C71.3083 6.78059 71.4443 6.59757 71.3196 6.39734C71.1966 6.20021 70.9411 6.22231 70.6862 6.26402L68.6258 6.54712L68.5617 6.65316C68.5248 6.71088 64.8989 12.6023 62.7007 14.3504C61.9295 14.9567 61.6277 15.0667 61.5267 15.0836C61.5267 14.8657 61.7691 14.2512 62.2402 13.5676L64.8912 9.24864L65.2245 8.68077C65.3326 8.50414 65.8067 7.52402 65.8067 6.77552C65.8067 6.50625 65.7461 6.267 65.5839 6.10585C65.1021 5.63809 64.1961 6.17197 63.8949 6.34998C63.8949 6.35356 61.2077 7.97958 61.2077 7.97958L61.2392 9.16267L61.5641 9.11531C61.5641 9.11531 61.958 9.06044 62.0014 9.0558C61.9925 9.23756 61.7038 9.73262 61.5826 9.92755L61.4394 10.168L61.3782 10.2836C59.7444 13.1706 57.8918 16.7407 57.8918 18.1091C57.8918 18.2239 57.9097 18.3279 57.9363 18.4068C57.9529 18.4524 58.0352 18.6547 58.2409 18.7447C59.4859 19.2465 62.0246 16.9794 63.4142 15.5989C63.1463 16.3214 62.8712 17.1887 62.8712 17.8334C62.8712 18.0309 62.8985 18.2042 62.9562 18.3514C62.9888 18.4312 63.1189 18.6594 63.3608 18.7481ZM92.9538 18.7361C94.0594 19.1431 96.6123 17.306 97.1102 16.9383L97.1827 16.883L97.4714 15.7199L96.9985 15.9117C96.5648 16.0852 95.9873 16.1855 95.8661 16.0529C95.8115 15.9967 95.7948 15.7656 96.0729 15.2439L100.621 7.16836L100.771 6.95645C100.901 6.77397 101.038 6.58631 100.914 6.38692C100.793 6.1958 100.531 6.21189 100.277 6.2552L98.22 6.53669L98.1505 6.64505C98.1148 6.70129 94.4895 12.5929 92.2907 14.3399C91.5213 14.9496 91.2183 15.0545 91.1161 15.0748C91.1191 14.8578 91.3627 14.2411 91.8338 13.5543L94.4842 9.23756L94.8193 8.67327C94.9274 8.49383 95.3974 7.51389 95.3974 6.76742C95.3974 6.49826 95.335 6.25591 95.1716 6.09572C94.6945 5.62945 93.7885 6.16673 93.4896 6.3426C93.4831 6.34397 90.8001 7.97053 90.8001 7.97053L90.831 9.1535L91.1601 9.10792C91.1601 9.10792 91.5498 9.04853 91.5897 9.044C91.5891 9.23083 91.2884 9.72601 91.1708 9.92022L91.0324 10.1589L90.9676 10.2769C89.3362 13.1584 87.4837 16.7344 87.4837 18.1019C87.4837 18.2144 87.498 18.3164 87.5277 18.4016C87.5431 18.4441 87.6281 18.6452 87.833 18.7363C89.0807 19.2401 91.6164 16.9688 93.0054 15.59C92.7351 16.3144 92.4654 17.1795 92.4654 17.8252C92.4654 18.0204 92.4891 18.1998 92.5497 18.339C92.5806 18.4258 92.7119 18.6522 92.9538 18.7361ZM84.5708 6.05205C84.5708 6.05205 88.7337 3.78493 86.7244 1.96154C85.3752 0.731128 82.2798 4.84347 81.6822 6.64505C80.4482 10.3918 77.4461 13.5813 77.4461 13.5813C77.4461 13.5813 80.6312 18.0327 82.7872 17.7854C84.945 17.5426 85.4637 15.2374 85.4637 15.2374H87.6174C87.6174 15.2374 85.1055 19.528 80.8777 20.0963C78.0764 20.4686 74.9021 16.3911 74.9021 16.3911C74.9021 16.3911 72.8601 17.9034 71.7135 18.4067C70.8983 18.7608 69.7731 18.8503 69.0726 18.5301C68.7934 18.4016 68.5854 18.1787 68.5349 17.9179C68.4939 17.6818 68.5005 17.4398 68.5545 17.2063C69.2681 14.3514 74.2581 14.0994 74.2581 14.0994C74.2581 14.0994 76.5353 7.82374 79.4702 4.38093C82.6589 0.644983 86.9847 -1.1127 88.6363 0.805888C90.2915 2.72557 89.0379 4.98736 87.6174 6.05205C85.5926 7.58371 84.5708 6.05205 84.5708 6.05205ZM55.0195 6.0312C55.0195 6.0312 59.1902 3.75969 57.1759 1.93945C55.8235 0.709044 52.7222 4.82358 52.1266 6.62432C50.8943 10.3748 47.884 13.5677 47.884 13.5677C47.884 13.5677 51.0777 18.0244 53.2362 17.7799C55.3947 17.5356 55.9093 15.2262 55.9093 15.2262H58.0701C58.0701 15.2262 55.5551 19.5203 51.323 20.0889C48.5198 20.4638 45.3369 16.3792 45.3369 16.3792C45.3369 16.3792 43.2949 17.8961 42.1453 18.4005C41.334 18.757 40.2053 18.8433 39.5025 18.5212C39.229 18.3914 39.0152 18.1707 38.9676 17.913C38.9308 17.6894 38.9308 17.4286 38.9885 17.1983C39.7 14.3383 44.6919 14.0848 44.6919 14.0848C44.6919 14.0848 46.9761 7.8058 49.9143 4.36365C53.1055 0.624412 57.4367 -1.13342 59.0892 0.782427C60.7472 2.70322 59.4859 4.96678 58.0701 6.0312C56.0423 7.56161 55.0195 6.0312 55.0195 6.0312Z" fill="#2DA54B"/>
<path d="M50.4198 24.4395C50.4198 23.6689 49.905 23.2298 48.9215 23.2298H47.6154V25.6566H48.9215C49.905 25.6566 50.4198 25.2098 50.4198 24.4395ZM50.4428 27.9524L49.2827 26.2963C49.1749 26.3037 49.0598 26.3115 48.9446 26.3115H47.6154V27.9524H46.8472V22.5596H48.9446C50.3431 22.5596 51.188 23.2684 51.188 24.4395C51.188 25.2713 50.7578 25.8724 50.0047 26.142L51.2801 27.9524H50.4428Z" fill="#2DA54B"/>
<path d="M60.3315 27.2822V27.9522H56.4285V22.5596H60.224V23.2296H57.1967V24.8863H59.8937V25.5409H57.1967V27.2822H60.3315Z" fill="#2DA54B"/>
<path d="M66.6392 23.2296H64.7957V22.5596H69.2438V23.2296H67.3997V27.9522H66.6392V23.2296Z" fill="#2DA54B"/>
<path d="M76.9657 25.9879L75.806 23.3453L74.6456 25.9879H76.9657ZM77.2348 26.6041H74.3765L73.7854 27.9524H72.9934L75.4293 22.5596H76.1898L78.6328 27.9524H77.826L77.2348 26.6041Z" fill="#2DA54B"/>
<path d="M83.4272 22.5596H84.1954V27.9524H83.4272V22.5596Z" fill="#2DA54B"/>
<path d="M89.8049 22.5596H90.5731V27.2822H93.4849V27.9524H89.8049V22.5596Z" fill="#2DA54B"/>
</g>
<defs>
<clipPath id="clip0_166_266">
<rect width="101" height="28" fill="white"/>
</clipPath>
</defs>
</svg>
