<svg width="126" height="27" viewBox="0 0 126 27" fill="none" xmlns="http://www.w3.org/2000/svg">
<g clip-path="url(#clip0_166_202)">
<path fill-rule="evenodd" clip-rule="evenodd" d="M42.8063 0.0418156C41.3803 0.171681 40.1931 0.708763 39.3907 1.58688C38.8117 2.22049 38.5077 2.95852 38.3714 4.06047C38.3003 4.63608 38.2839 18.3589 38.3484 23.3468L38.3879 26.4031H41.5651H44.7423V13.2016V0L43.8934 0.0100355C43.4265 0.0155909 42.9374 0.0298685 42.8063 0.0418156ZM72.948 0.0682179C72.2854 0.141275 71.4972 0.376812 70.9279 0.671846C70.568 0.858401 70.3176 1.05045 69.9377 1.43144C69.3352 2.03573 69.048 2.56045 68.8504 3.41807L68.7227 3.97242L68.7043 15.1878L68.6859 26.4031H71.7171H74.7482L74.7858 26.0895C74.8065 25.917 74.8237 25.5238 74.8239 25.2157L74.8244 24.6555L75.018 24.8146C76.5421 26.0667 77.9645 26.6798 79.8184 26.8832C80.6496 26.9745 82.1399 26.9294 82.9258 26.7893C86.2172 26.2025 88.6877 24.1329 89.687 21.1255C90.0975 19.8904 90.1594 19.4432 90.1594 17.7116C90.1594 16.3201 90.1452 16.0932 90.024 15.5312C89.6107 13.6167 88.8454 12.1421 87.6351 10.9278C86.1585 9.44628 84.3805 8.64571 82.0586 8.41692C79.6878 8.18324 77.0591 8.82223 75.4752 10.0172L75.0627 10.3283V5.16414V0L74.2436 0.00782607C73.7932 0.012127 73.2101 0.0393059 72.948 0.0682179ZM8.82241 1.08271C7.05709 1.28688 5.65544 2.15233 5.02163 3.42936C4.62008 4.23854 4.57529 4.53966 4.54789 6.61571L4.52328 8.48245H2.26164H0L0.0180498 9.84143C0.0356821 11.1725 0.0393155 11.2075 0.195683 11.542C0.383622 11.944 0.808465 12.4197 1.1688 12.6314C1.63438 12.9051 2.00883 12.9626 3.32482 12.9626H4.53347L4.53365 16.6214C4.53383 20.3723 4.56075 20.9458 4.77681 21.7933C5.159 23.2926 6.10888 24.7078 7.36298 25.6466C7.97385 26.1039 9.00147 26.6013 9.75239 26.8031C10.2846 26.9461 10.4478 26.9618 11.4434 26.966C12.4009 26.97 12.6145 26.9529 13.072 26.836C13.6877 26.6787 14.3827 26.4088 14.8239 26.1556L15.1367 25.9762V23.8899C15.1367 22.7423 15.125 21.8035 15.1108 21.8035C15.0965 21.8035 15.0109 21.8317 14.9205 21.8661C14.8301 21.9006 14.5562 21.9543 14.3118 21.9853C13.0803 22.1419 11.9698 21.5536 11.393 20.4391C10.9407 19.5654 10.9489 19.6406 10.9229 16.1137L10.8997 12.9626H13.1671H15.4345V11.6804C15.4345 10.6663 15.4147 10.3384 15.3396 10.1123C15.1174 9.44371 14.6194 8.91661 13.9603 8.65246C13.6448 8.526 13.5105 8.51351 12.2625 8.49476L10.9073 8.47439V4.74492V1.0155L10.0882 1.02327C9.63778 1.02751 9.06813 1.05427 8.82241 1.08271ZM119.418 1.08115C118.695 1.15756 118.037 1.34489 117.419 1.65026C116.667 2.02217 115.934 2.73207 115.608 3.40493C115.186 4.27551 115.138 4.58243 115.108 6.64558L115.08 8.48245H112.823H110.566V9.69616C110.566 11.0051 110.615 11.3149 110.902 11.8076C111.112 12.167 111.528 12.5268 111.985 12.7437L112.382 12.9328L113.733 12.9525L115.083 12.9723L115.109 16.9249C115.133 20.6328 115.142 20.9109 115.256 21.4152C115.585 22.868 116.18 23.9722 117.175 24.9753C118.494 26.3056 120.171 27.0013 122.055 27C123.207 26.9993 124.112 26.7873 125.145 26.2766L125.756 25.9748V23.8891C125.756 22.6354 125.733 21.8035 125.7 21.8035C125.669 21.8035 125.572 21.8312 125.483 21.865C125.394 21.8989 125.127 21.9537 124.89 21.9868C123.378 22.1977 122.087 21.2569 121.633 19.612C121.51 19.1669 121.503 19.0021 121.481 16.0539L121.458 12.9626H123.729H126L125.982 11.5722L125.964 10.1818L125.77 9.78773C125.533 9.30489 125.166 8.95406 124.635 8.70138L124.237 8.51232L122.867 8.48245L121.496 8.45258L121.481 4.73404L121.466 1.0155L120.677 1.02345C120.243 1.02781 119.676 1.0538 119.418 1.08115ZM23.9231 8.48574C22.6623 8.61112 21.6706 8.8957 21.1157 9.29133C20.417 9.78947 20.0391 10.2786 19.8716 10.9017C19.7695 11.2818 19.6663 13.5002 19.7507 13.5002C19.7754 13.5002 20.0139 13.4342 20.2807 13.3535C21.4014 13.0146 22.69 12.8431 24.1161 12.8431C26.8572 12.8431 28.8293 13.5205 29.3334 14.6352C29.4489 14.8908 29.5606 15.9494 29.4719 15.9494C29.4524 15.9494 29.2951 15.8867 29.1221 15.81C27.7154 15.1862 25.9751 14.8544 24.1315 14.8588C20.184 14.8682 17.7224 16.3422 16.9732 19.1452C16.7866 19.8438 16.7113 20.8581 16.7909 21.6046C16.9435 23.0371 17.3259 23.913 18.2023 24.837C19.1588 25.8457 20.3783 26.4645 22.0764 26.8029C22.5045 26.8882 22.9065 26.9094 24.072 26.9086C25.3663 26.9076 25.6016 26.8921 26.1523 26.7716C27.331 26.5135 28.286 26.0402 29.0096 25.3557C29.2341 25.1432 29.4347 24.9695 29.4553 24.9695C29.4759 24.9695 29.4927 25.292 29.4927 25.6863V26.4031H31.7156C33.0647 26.4031 34.0765 26.3776 34.2895 26.3381C35.2507 26.1599 35.6698 25.6376 35.8057 24.4483C35.8873 23.7337 35.8847 15.8791 35.8025 14.9994C35.6398 13.2574 35.0704 11.9787 33.9633 10.8691C32.7279 9.63087 31.1505 8.91506 28.8854 8.56471C28.1648 8.45324 24.7895 8.39954 23.9231 8.48574ZM54.1839 8.48574C52.4702 8.65616 51.5153 9.03471 50.7382 9.85171C50.3778 10.2307 50.2212 10.5289 50.1078 11.0528C50.019 11.4631 49.9457 13.5005 50.0198 13.4995C50.0494 13.499 50.2479 13.4439 50.4609 13.3769C50.9528 13.2222 51.7104 13.0565 52.3968 12.9535C53.2325 12.8281 55.751 12.8482 56.5071 12.9864C57.8104 13.2245 58.6598 13.5698 59.1862 14.0755C59.5728 14.447 59.7097 14.7818 59.7424 15.4361C59.7676 15.9391 59.7629 15.9655 59.6571 15.92C57.7371 15.0947 55.6189 14.7276 53.6047 14.871C51.4626 15.0236 49.984 15.5387 48.825 16.5364C47.3578 17.7993 46.7084 20.0698 47.1647 22.3411C47.5937 24.4767 49.3037 26.0774 51.7912 26.6721C52.6454 26.8763 53.2635 26.9408 54.3611 26.9404C56.63 26.9395 58.1486 26.4302 59.4214 25.243C59.5827 25.0926 59.7234 24.9695 59.7341 24.9695C59.7448 24.9695 59.7536 25.292 59.7536 25.6863V26.4031H61.9764C63.3275 26.4031 64.3373 26.3776 64.5509 26.3379C65.1679 26.2236 65.5652 25.9657 65.7849 25.537C66.0942 24.9331 66.0889 25.0206 66.1129 20.1906C66.1276 17.2288 66.1131 15.4448 66.0705 14.9936C65.8759 12.9292 65.0555 11.4057 63.5109 10.2396C62.3658 9.3752 61.0015 8.85162 59.1462 8.56471C58.4257 8.45324 55.0504 8.39954 54.1839 8.48574ZM98.6221 8.46059C96.9881 8.5883 95.9753 8.91278 95.2053 9.55542C94.4011 10.2265 94.2408 10.6684 94.1987 12.3298C94.1697 13.476 94.1727 13.5174 94.2807 13.4754C94.5751 13.3607 95.786 13.0776 96.394 12.9814C97.3649 12.8277 99.7248 12.8286 100.647 12.983C102.315 13.262 103.435 13.8563 103.771 14.6401C103.894 14.9274 104.021 15.9494 103.933 15.9494C103.912 15.9494 103.674 15.8579 103.403 15.746C101.357 14.9001 98.7108 14.6242 96.4452 15.0204C93.7111 15.4986 91.9424 16.973 91.3821 19.2412C91.2059 19.9545 91.1593 21.3473 91.2872 22.0813C91.5346 23.5009 92.1959 24.6132 93.2792 25.4312C94.1369 26.0789 95.3024 26.5756 96.4776 26.7943C97.1968 26.9282 99.1487 26.9789 99.867 26.8824C101.499 26.6632 102.578 26.1875 103.581 25.2458L103.894 24.9521V25.6812V26.4103L106.351 26.3909C108.731 26.3721 108.819 26.3673 109.138 26.2384C109.489 26.0967 109.833 25.7843 109.997 25.4571C110.254 24.9465 110.266 24.6964 110.267 19.7618C110.268 14.962 110.253 14.5858 110.029 13.7075C109.654 12.2389 108.701 10.9093 107.396 10.0333C106.496 9.42974 105.717 9.09056 104.609 8.81894C103.399 8.52253 102.865 8.47098 100.826 8.4536C99.7777 8.44464 98.7859 8.4478 98.6221 8.46059ZM78.5588 13.3821C78.0172 13.4682 77.2552 13.7565 76.7724 14.0582C76.2051 14.4129 75.573 15.0811 75.286 15.6296L75.0627 16.0564V17.6817V19.307L75.2844 19.7339C75.6137 20.368 76.3597 21.0914 77.063 21.4587C77.8237 21.8559 78.4638 22.0032 79.4112 21.9989C81.509 21.9893 83.0028 20.9297 83.5344 19.0741C83.7095 18.4627 83.7237 17.0511 83.5612 16.3991C83.2024 14.9589 82.1198 13.8682 80.68 13.4964C80.1441 13.3579 79.0743 13.3004 78.5588 13.3821ZM25.3325 18.8183C23.9601 19.0076 23.2976 19.7073 23.2976 20.9674C23.2976 21.5687 23.4212 21.9126 23.778 22.3041C24.2387 22.8096 24.9422 23.057 25.9186 23.057C27.145 23.057 28.5344 22.501 29.2207 21.7355L29.4927 21.4322V20.6349V19.8375L29.0872 19.596C28.0681 18.9889 26.48 18.6599 25.3325 18.8183ZM55.5934 18.8183C54.181 19.0132 53.5042 19.7701 53.5708 21.0808C53.6017 21.6882 53.7678 22.0736 54.1468 22.417C54.4764 22.7156 54.7655 22.8525 55.3013 22.9634C56.1242 23.1339 56.9441 23.069 57.8331 22.7631C58.4769 22.5416 58.9198 22.2744 59.3813 21.829L59.7571 21.4664L59.7404 20.6358L59.7238 19.8053L59.3384 19.5807C58.3208 18.9877 56.7231 18.6624 55.5934 18.8183ZM99.7832 18.8119C99.0893 18.9086 98.5316 19.1717 98.1861 19.5653C97.8567 19.9405 97.7289 20.3342 97.7288 20.9735C97.7288 21.443 97.7468 21.523 97.9372 21.8971C98.3048 22.6197 98.9666 22.9726 100.077 23.0382C101.15 23.1015 102.192 22.8164 103.09 22.2134C103.327 22.0549 103.619 21.8049 103.739 21.658L103.957 21.3908L103.94 20.5987L103.924 19.8066L103.388 19.5233C102.812 19.219 102.116 18.9772 101.541 18.8818C101.011 18.7939 100.156 18.7599 99.7832 18.8119Z" fill="#FF5900"/>
</g>
<defs>
<clipPath id="clip0_166_202">
<rect width="126" height="27" fill="white"/>
</clipPath>
</defs>
</svg>
