<svg width="68" height="47" viewBox="0 0 68 47" fill="none" xmlns="http://www.w3.org/2000/svg">
<path fill-rule="evenodd" clip-rule="evenodd" d="M12.6281 10.587C13.7116 10.3252 14.8191 10.1933 15.93 10.194C24.7275 10.194 31.8572 18.342 31.8572 28.389C31.8572 38.439 24.7275 46.587 15.93 46.587C7.1325 46.587 0 38.442 0 28.389C0 28.095 0.005625 27.798 0.0196875 27.504H0C0 12.339 10.8 0 24.075 0V6.108C19.7691 6.108 15.7978 7.782 12.6281 10.587ZM48.2738 10.587C49.3369 10.329 50.4394 10.194 51.57 10.194C60.3675 10.194 67.5 18.342 67.5 28.389C67.5 38.439 60.3675 46.587 51.57 46.587C42.7725 46.587 35.6428 38.442 35.6428 28.389C35.6428 28.095 35.6484 27.798 35.6625 27.504H35.6428C35.6428 12.339 46.4428 0 59.7178 0V6.108C55.4091 6.108 51.4434 7.782 48.2738 10.587Z" fill="#001E61"/>
</svg>
