<svg xmlns="http://www.w3.org/2000/svg" width="55.438" height="56.582" viewBox="0 0 55.438 56.582">
  <g id="Group_24" data-name="Group 24" transform="translate(-5.717 -5)">
    <path id="Path_66" data-name="Path 66" d="M7.575,33.216A55.342,55.342,0,0,0,18.6,48.756,52.891,52.891,0,0,0,34,59.809a18.453,18.453,0,0,0,7.17,1.773,6.6,6.6,0,0,0,4.846-1.755l4.692-4.691a3.881,3.881,0,0,0-.285-5.458l-6.914-6.914a3.881,3.881,0,0,0-5.458-.285L35.9,44.632c-.6.446-4.283-.69-8.432-4.838s-5.288-7.839-4.84-8.43l2.155-2.155a3.88,3.88,0,0,0-.285-5.458l-6.914-6.914a3.88,3.88,0,0,0-5.458-.285l-4.691,4.69C5.1,23.585,5.145,27.837,7.575,33.216Zm2.15-9.686,4.691-4.691a.262.262,0,0,1,.18-.051,1.061,1.061,0,0,1,.705.336l6.914,6.914c.357.357.388.783.285.885l-2.155,2.155c-2.679,2.68.407,8.57,4.84,13a24.416,24.416,0,0,0,6.836,4.965c3.622,1.636,5.418.624,6.166-.125l2.155-2.155c.1-.1.528-.072.886.285l6.913,6.914c.357.357.388.783.285.886L43.735,57.54c-1.3,1.3-4.455,1.043-8.437-.695A49.637,49.637,0,0,1,20.889,46.469,52,52,0,0,1,10.522,31.885C8.739,27.937,8.441,24.814,9.725,23.53ZM61.155,36.8A31.836,31.836,0,0,0,29.355,5V8.234A28.6,28.6,0,0,1,57.921,36.8Z" fill="#fff"/>
    <path id="Path_67" data-name="Path 67" d="M35.7,15.926v3.234A20.357,20.357,0,0,1,56.035,39.494h3.234A23.6,23.6,0,0,0,35.7,15.926Z" transform="translate(-5.745 -2.094)" fill="#fff"/>
    <path id="Path_68" data-name="Path 68" d="M47.8,41.445h3.234A15.354,15.354,0,0,0,35.7,26.108v3.234A12.117,12.117,0,0,1,47.8,41.445Z" transform="translate(-5.745 -4.045)" fill="#fff"/>
  </g>
</svg>
