<svg xmlns="http://www.w3.org/2000/svg" width="44" height="44" viewBox="0 0 44 44">
  <g id="Group_222" data-name="Group 222" transform="translate(-0.048)">
    <path id="Union_12" data-name="Union 12" d="M17.134,44a3.629,3.629,0,0,1-.993-.131,6.352,6.352,0,0,1-2.966-2.177,8.836,8.836,0,0,0-1.652-1.522,18.5,18.5,0,0,0-2.483-.778,6.759,6.759,0,0,1-2.856-1.2,4.065,4.065,0,0,1-1.01-1.367A9.121,9.121,0,0,1,4.5,34.555v0a7.56,7.56,0,0,0-.661-2.068,8.826,8.826,0,0,0-1.524-1.654,6.36,6.36,0,0,1-2.18-2.97,6.381,6.381,0,0,1,.406-3.6A8.6,8.6,0,0,0,1.031,22a7.761,7.761,0,0,0-.473-2.177l.014-.005-.015,0a8.864,8.864,0,0,1-.54-2.29,4.015,4.015,0,0,1,.2-1.685A6.8,6.8,0,0,1,2.1,13.387,18.315,18.315,0,0,0,3.843,11.5a8.816,8.816,0,0,0,.681-2.16,6.391,6.391,0,0,1,1.47-3.349A6.377,6.377,0,0,1,9.339,4.526,8.757,8.757,0,0,0,11.5,3.843,18.658,18.658,0,0,0,13.387,2.1,10.211,10.211,0,0,1,15.039.624,3.709,3.709,0,0,1,17.151,0a8.123,8.123,0,0,1,2.674.555h0A7.777,7.777,0,0,0,22,1.03a8.616,8.616,0,0,0,2.25-.493A9.048,9.048,0,0,1,26.869,0a3.6,3.6,0,0,1,.989.13,6.352,6.352,0,0,1,2.966,2.177,8.769,8.769,0,0,0,1.657,1.526,7.569,7.569,0,0,0,2.05.658h0l.021,0a9.069,9.069,0,0,1,2.265.679,4.06,4.06,0,0,1,1.368,1.012,6.752,6.752,0,0,1,1.2,2.855,18.239,18.239,0,0,0,.779,2.481,8.87,8.87,0,0,0,1.52,1.649A7.507,7.507,0,0,1,43.7,15.624l.016-.031.092.324c.023.072.044.146.063.221a6.377,6.377,0,0,1-.4,3.6,8.656,8.656,0,0,0-.494,2.245,18.446,18.446,0,0,0,.573,2.583,6.666,6.666,0,0,1,.381,3.068,4.061,4.061,0,0,1-.687,1.555A9.289,9.289,0,0,1,41.6,30.917l0,0a7.452,7.452,0,0,0-1.438,1.57,8.726,8.726,0,0,0-.686,2.169A6.382,6.382,0,0,1,38.005,38a6.372,6.372,0,0,1-3.344,1.469,8.74,8.74,0,0,0-2.171.687A7.48,7.48,0,0,0,30.92,41.6l0,0a8.247,8.247,0,0,1-2.1,1.871,3.916,3.916,0,0,1-.957.4,3.615,3.615,0,0,1-.932.118,8.948,8.948,0,0,1-2.364-.447,17.982,17.982,0,0,0-2.581-.572,8.644,8.644,0,0,0-2.244.493A9.024,9.024,0,0,1,17.134,44Zm0-.224h0ZM16.4,2.124a3.067,3.067,0,0,0-.687.409,10.226,10.226,0,0,0-1.288,1.281,7.449,7.449,0,0,1-1.93,1.716,8.137,8.137,0,0,1-2.486.834,13.9,13.9,0,0,0-1.487.388,3.224,3.224,0,0,0-1.145.627,5.229,5.229,0,0,0-.967,2.476A7.21,7.21,0,0,1,6.084,11.2a7.185,7.185,0,0,1-.572,1.256,7.243,7.243,0,0,1-.8,1.124,7.177,7.177,0,0,1-1.008.955,8.5,8.5,0,0,0-1.111,1.092,2.724,2.724,0,0,0-.535.981,2.629,2.629,0,0,0-.049,1.11,7.791,7.791,0,0,0,.409,1.5,7.545,7.545,0,0,1,.4,1.368A7.494,7.494,0,0,1,2.953,22a7.5,7.5,0,0,1-.134,1.411,7.506,7.506,0,0,1-.4,1.371,5.174,5.174,0,0,0-.4,2.568,3.191,3.191,0,0,0,.68,1.13,14.005,14.005,0,0,0,1.1,1.084,8.1,8.1,0,0,1,1.727,1.942,8.122,8.122,0,0,1,.835,2.488,14.043,14.043,0,0,0,.388,1.486,3.238,3.238,0,0,0,.625,1.142,3.235,3.235,0,0,0,1.143.625,13.879,13.879,0,0,0,1.489.389,8.14,8.14,0,0,1,2.484.833A8.092,8.092,0,0,1,14.437,40.2a13.677,13.677,0,0,0,1.084,1.1,3.186,3.186,0,0,0,1.129.68,1.912,1.912,0,0,0,.492.059,7.62,7.62,0,0,0,2.079-.457l.005,0a7.473,7.473,0,0,1,5.552,0,5.967,5.967,0,0,0,1.971.445,2.321,2.321,0,0,0,.685-.1,2.507,2.507,0,0,0,.635-.3A6.906,6.906,0,0,0,29.462,40.3,7.2,7.2,0,0,1,32.8,37.915a7.3,7.3,0,0,1,1.35-.324,8.079,8.079,0,0,0,1.509-.4A2.48,2.48,0,0,0,37.2,35.654a8.073,8.073,0,0,0,.4-1.506,7.2,7.2,0,0,1,1.7-3.731,7.129,7.129,0,0,1,1.012-.958h0a8.315,8.315,0,0,0,1.106-1.088,2.713,2.713,0,0,0,.535-.98,2.629,2.629,0,0,0,.049-1.11,7.833,7.833,0,0,0-.409-1.5,7.472,7.472,0,0,1,0-5.549,5.193,5.193,0,0,0,.4-2.577,3.2,3.2,0,0,0-.68-1.129,13.7,13.7,0,0,0-1.1-1.084,8.1,8.1,0,0,1-1.726-1.942,8.125,8.125,0,0,1-.836-2.488,14.118,14.118,0,0,0-.388-1.487,3.237,3.237,0,0,0-.628-1.146,5.231,5.231,0,0,0-2.475-.966A7.184,7.184,0,0,1,32.8,6.084a7.155,7.155,0,0,1-1.256-.572,7.213,7.213,0,0,1-1.125-.8A7.276,7.276,0,0,1,29.458,3.7l-.037-.048a5.263,5.263,0,0,0-1.408-1.318,2.566,2.566,0,0,0-.642-.273,2.39,2.39,0,0,0-.626-.08,6.476,6.476,0,0,0-1.9.415,10.178,10.178,0,0,1-2.837.589h-.073a9.009,9.009,0,0,1-2.594-.536,8.7,8.7,0,0,0-2.2-.49A2.067,2.067,0,0,0,16.4,2.124ZM22,36.279h0a15.242,15.242,0,0,1-2.6-.223,14.9,14.9,0,0,1-2.525-.669A14.3,14.3,0,0,1,14.5,34.271a13.438,13.438,0,0,1-5.426-6.029,16.513,16.513,0,0,1-1.425-6.233V22A14.351,14.351,0,0,1,35.255,16.51,14.344,14.344,0,0,1,36.352,22v.01a16.513,16.513,0,0,1-1.425,6.233A13.432,13.432,0,0,1,29.5,34.271a14.3,14.3,0,0,1-2.373,1.116,14.91,14.91,0,0,1-2.526.669A15.242,15.242,0,0,1,22,36.279ZM22,9.667a13.259,13.259,0,0,0-2.252.193,12.9,12.9,0,0,0-2.184.579,12.287,12.287,0,0,0-2.049.963,11.579,11.579,0,0,0-4.676,5.2A14.313,14.313,0,0,0,9.6,22,12.4,12.4,0,0,0,34.4,22a14.33,14.33,0,0,0-1.234-5.4,11.586,11.586,0,0,0-4.677-5.2,12.287,12.287,0,0,0-2.049-.963,12.907,12.907,0,0,0-2.185-.579A13.267,13.267,0,0,0,22,9.667Z" transform="translate(0.048)" fill="#001e61"/>
    <path id="Union_11" data-name="Union 11" d="M13.451,16.613A.976.976,0,0,1,13,16.5L8.688,14.234,4.377,16.5a.978.978,0,0,1-1.03-.074h0a.972.972,0,0,1-.4-.738.749.749,0,0,1,0-.11.988.988,0,0,1,.012-.108l.823-4.8L.3,7.273A.977.977,0,0,1,.837,5.605l.016,0,4.8-.7L7.812.535A.988.988,0,0,1,8.174.145.983.983,0,0,1,9.561.535l0,0,2.155,4.367,4.822.7a.982.982,0,0,1,.541,1.664l-.066.066h0L13.592,10.67l.823,4.8a.983.983,0,0,1-.058.534.98.98,0,0,1-.906.609Zm.528-.934a.52.52,0,0,0,0-.084A.751.751,0,0,1,13.979,15.679ZM9.142,12.264l3.011,1.584-.575-3.353a.983.983,0,0,1-.013-.121.757.757,0,0,1,0-.085.98.98,0,0,1,.295-.66L14.3,7.254l-3.367-.489a.977.977,0,0,1-.661-.41h-.013l-.062-.125L8.687,3.18,7.181,6.231a.979.979,0,0,1-.735.535l-3.368.489L5.514,9.629a.976.976,0,0,1,.291.6h.036l-.045.262-.575,3.353,3.011-1.584a.983.983,0,0,1,.91,0Zm-3.782-1.9a.535.535,0,0,0,0-.066Q5.362,10.331,5.36,10.364ZM16.92,6.6q0-.017,0-.034C16.92,6.576,16.92,6.587,16.92,6.6Z" transform="translate(13.316 13.693)" fill="#009abf"/>
  </g>
</svg>
