<svg xmlns="http://www.w3.org/2000/svg" width="35.952" height="43.632" viewBox="0 0 35.952 43.632">
  <g id="Group_220" data-name="Group 220" transform="translate(0)">
    <path id="Union_8" data-name="Union 8" d="M7.535,35.628a2.23,2.23,0,0,1-.881-.179,2.267,2.267,0,0,1-1.386-2.088,2.2,2.2,0,0,1,.157-.817,2.336,2.336,0,0,1,.324-.564,2.229,2.229,0,0,1-.343-2.158,2.281,2.281,0,0,1,1.52-1.4A12.9,12.9,0,0,0,6.6,26.2a13.683,13.683,0,0,0-.764-2.294,15.013,15.013,0,0,0-2.741-4.188A11.717,11.717,0,0,1,0,11.5a11.98,11.98,0,0,1,.271-2.25,11.723,11.723,0,0,1,1.72-4.014A11.939,11.939,0,0,1,3.357,3.556,11.611,11.611,0,0,1,5,2.151,11.613,11.613,0,0,1,8.972.336,11.462,11.462,0,0,1,11.211.013C11.394,0,11.581,0,11.764,0a12,12,0,0,1,2.245.21,11.713,11.713,0,0,1,5.9,3.046,11.762,11.762,0,0,1,.372,16.668A13.127,13.127,0,0,0,17.663,23.9a13.312,13.312,0,0,0-.728,2.273,13.77,13.77,0,0,0-.315,2.252,2.286,2.286,0,0,1,1.141.743,2.184,2.184,0,0,1,.377.66,2.228,2.228,0,0,1,.137.775,2.193,2.193,0,0,1-.158.817,2.223,2.223,0,0,1-.323.564,2.244,2.244,0,0,1,.481,1.381,2.282,2.282,0,0,1-1.386,2.088,2.227,2.227,0,0,1-.881.179Zm-.352-2.607a.5.5,0,0,0,.352.849h8.473a.5.5,0,0,0,.5-.5.5.5,0,0,0-.5-.5H7.535A.5.5,0,0,0,7.184,33.021Zm10.732.389c0-.016,0-.033,0-.049C17.917,33.378,17.916,33.395,17.916,33.411Zm0-.049c0-.015,0-.029,0-.044C17.916,33.333,17.917,33.347,17.917,33.362Zm-10.733-3.1a.495.495,0,0,0,0,.7.5.5,0,0,0,.352.146h8.473a.5.5,0,0,0,0-1H7.535A.489.489,0,0,0,7.184,30.259Zm10.732.385c0-.015,0-.03,0-.044C17.917,30.614,17.916,30.629,17.916,30.644Zm0-.044v0h0ZM15.088,18.209a3.323,3.323,0,0,1-2.437,3.19v6.946h2.182a15.724,15.724,0,0,1,.357-2.556A14.939,14.939,0,0,1,19,18.705a10.006,10.006,0,0,0-.315-14.168,9.938,9.938,0,0,0-6.9-2.764c-.161,0-.327,0-.489.01a10.034,10.034,0,0,0-9.523,9.765v.04a10.024,10.024,0,0,0,2.615,6.949A17.694,17.694,0,0,1,6.142,20.8,16.487,16.487,0,0,1,7.465,23.25a15.6,15.6,0,0,1,.862,2.588,14.6,14.6,0,0,1,.37,2.5h2.184V21.4A3.24,3.24,0,0,1,10,21.008a3.347,3.347,0,0,1-1.354-1.679,3.285,3.285,0,0,1-.193-1.12,3.319,3.319,0,1,1,6.638,0Zm-4.86,0a1.547,1.547,0,0,0,3.094.04v-.08a1.547,1.547,0,0,0-3.094.04Z" transform="translate(6.198 8.004)" fill="#001e61"/>
    <path id="Union_10" data-name="Union 10" d="M31.118,11.457l-.008-.011-.006-.013a1.157,1.157,0,0,1-.093-.876,1.193,1.193,0,0,1,.2-.388,1.13,1.13,0,0,1,.33-.293L34.252,8.3a1.172,1.172,0,0,1,1.558.434l0,.005a1.16,1.16,0,0,1,.092.877A1.174,1.174,0,0,1,35.71,10a1.133,1.133,0,0,1-.331.293l-2.715,1.578,0,0A1.31,1.31,0,0,1,32.1,12,1.241,1.241,0,0,1,31.118,11.457ZM3.3,11.876l-.005,0,0,0L.583,10.3A1.1,1.1,0,0,1,.04,9.61a1.186,1.186,0,0,1,.106-.873l0,0,0,0A1.228,1.228,0,0,1,.594,8.3a1.156,1.156,0,0,1,.563-.149,1.1,1.1,0,0,1,.554.149L4.426,9.878a1.2,1.2,0,0,1,.536.71,1.1,1.1,0,0,1-.11.851l0,0a1.2,1.2,0,0,1-.43.41A1.152,1.152,0,0,1,3.857,12,1.3,1.3,0,0,1,3.3,11.876ZM9.314,7.019a1.211,1.211,0,0,1-.43-.41l0,0L7.3,3.89a1.16,1.16,0,0,1-.092-.877,1.174,1.174,0,0,1,.194-.388,1.133,1.133,0,0,1,.331-.293l.005,0A1.172,1.172,0,0,1,9.3,2.762l1.578,2.716a1.161,1.161,0,0,1,.092.876,1.176,1.176,0,0,1-.2.388,1.13,1.13,0,0,1-.33.293l-.005,0-.005,0a1.3,1.3,0,0,1-.556.13A1.162,1.162,0,0,1,9.314,7.019ZM25.527,7l0,0a1.1,1.1,0,0,1-.545-.688,1.185,1.185,0,0,1,.106-.873l0-.005,1.578-2.714a1.228,1.228,0,0,1,.443-.428,1.156,1.156,0,0,1,.563-.148,1.1,1.1,0,0,1,.554.149l0,0a1.2,1.2,0,0,1,.537.71,1.109,1.109,0,0,1-.11.851L27.078,6.573a1.211,1.211,0,0,1-.43.41,1.153,1.153,0,0,1-.564.151A1.31,1.31,0,0,1,25.527,7ZM17.17,5.037a1.13,1.13,0,0,1-.321-.793V1.131a1.079,1.079,0,0,1,.092-.436,1.174,1.174,0,0,1,.6-.6,1.084,1.084,0,0,1,.873,0,1.174,1.174,0,0,1,.6.6,1.1,1.1,0,0,1,.092.436V4.244a1.1,1.1,0,0,1-.092.437,1.153,1.153,0,0,1-.245.358,1.169,1.169,0,0,1-.358.245,1.1,1.1,0,0,1-.437.091A1.118,1.118,0,0,1,17.17,5.037Z" transform="translate(0)" fill="#009abf"/>
  </g>
</svg>
