<svg id="Group_215" data-name="Group 215" xmlns="http://www.w3.org/2000/svg" width="46.404" height="44" viewBox="0 0 46.404 44">
  <path id="Path_167" data-name="Path 167" d="M148.744,227.662a3.921,3.921,0,0,0-5.546,0l-5.972,5.972a3.894,3.894,0,0,0-1.02-.485l-.048-.013a4.032,4.032,0,0,0-.46-.105l-.115-.019a3.891,3.891,0,0,0-.534-.04h0l-18.006,0a6.211,6.211,0,0,0-4.332,1.758l-8.911,8.9a1.054,1.054,0,0,0,0,1.491l8.112,8.113a1.055,1.055,0,0,0,1.491,0l3.821-3.822h13.69a3.891,3.891,0,0,0,2.772-1.149l15.06-15.06a3.921,3.921,0,0,0,0-5.547Zm-1.491,4.056-15.06,15.061a1.8,1.8,0,0,1-1.284.531H116.785a1.055,1.055,0,0,0-.746.309L112.655,251l-6.62-6.62,8.151-8.145a4.1,4.1,0,0,1,2.857-1.155l18.005,0a1.8,1.8,0,0,1,1.4.675c.016.02.037.035.054.054a1.811,1.811,0,0,1-1.448,2.9h-9.934a1.054,1.054,0,1,0,0,2.108h9.935a3.9,3.9,0,0,0,3.543-5.568l6.095-6.094a1.857,1.857,0,0,1,2.564,0,1.811,1.811,0,0,1,0,2.565Z" transform="translate(-103.49 -209.549)" fill="#001e61"/>
  <path id="Path_168" data-name="Path 168" d="M291.853,66.247a1.045,1.045,0,0,0,.128-.012c.028,0,.056.01.084.011l.246,0a13.461,13.461,0,0,0,13.462-13.708,1.055,1.055,0,0,0-1.035-1.036,13.281,13.281,0,0,0-8.206,2.6,13.357,13.357,0,0,0-3.946-7.533,1.054,1.054,0,0,0-1.464,0,13.463,13.463,0,0,0,0,19.387,1.06,1.06,0,0,0,.733.293Zm8.489-5.433a11.237,11.237,0,0,1-6.062,3.156,13.321,13.321,0,0,0,2.414-7.248,11.243,11.243,0,0,1,6.943-3.082A11.254,11.254,0,0,1,300.342,60.814Zm-8.489-11.957a11.358,11.358,0,0,1,0,14.8,11.355,11.355,0,0,1,0-14.8Z" transform="translate(-269.728 -46.272)" fill="#009abf"/>
</svg>
