<svg xmlns="http://www.w3.org/2000/svg" width="391.489" height="109.107" viewBox="0 0 391.489 109.107">
  <g id="Group_19" data-name="Group 19" transform="translate(1030.881 -1832.995)">
    <g id="Group_16" data-name="Group 16" transform="translate(-1113 1739)">
      <g id="Group_11" data-name="Group 11">
        <g id="Group_10" data-name="Group 10">
          <g id="Group_9" data-name="Group 9">
            <path id="Path_114" data-name="Path 114" d="M159.854,203.1Z" fill="#00adee"/>
            <path id="Path_115" data-name="Path 115" d="M159.854,188.666l-21.377-24.709-21.1,24.986V203.1h0l5.275-6.385,2.221-2.5,13.6-15.269,13.881,15.269,1.943,2.5,5.553,6.385V188.666Z" fill="#009abf"/>
            <g id="Group_8" data-name="Group 8">
              <path id="Path_116" data-name="Path 116" d="M130.7,137.86l-13.326,6.663v44.42L130.7,173.119Z" fill="#001e61"/>
              <path id="Path_117" data-name="Path 117" d="M146.806,138.415v34.7l13.048,15.547V145.078Z" fill="#001e61"/>
            </g>
          </g>
          <path id="Path_118" data-name="Path 118" d="M106.272,172.563V187a59.574,59.574,0,0,0,7.218,5.275V172.563Z" fill="#001e61"/>
          <path id="Path_119" data-name="Path 119" d="M164.018,172.563v19.712A34.5,34.5,0,0,0,171.237,187V172.563Z" fill="#001e61"/>
        </g>
      </g>
      <path id="Path_120" data-name="Path 120" d="M161.52,117.038l-16.658-3.332,4.72-7.218-7.218,4.442L138.477,94l-3.332,16.935-7.773-4.442,4.72,7.218-16.658,3.332,16.658,3.887-4.72,7.218,7.773-4.164,3.332,16.935,3.887-16.935,7.218,4.164-4.72-7.218Z" fill="#009abf"/>
      <g id="Group_12" data-name="Group 12">
        <path id="Path_121" data-name="Path 121" d="M82.119,150.353a56.646,56.646,0,0,0,24.153,46.364c1.388.833,2.776,1.943,4.442,2.776a24.313,24.313,0,0,1,3.332,1.943v-8.051a34.464,34.464,0,0,1-7.219-5.275,49.4,49.4,0,0,1,24.987-86.064l1.388-7.773A55.987,55.987,0,0,0,82.119,150.353Z" fill="#009abf"/>
        <path id="Path_122" data-name="Path 122" d="M144.862,94l1.388,7.774a49.318,49.318,0,0,1,41.367,48.862,48.585,48.585,0,0,1-16.936,37.2,59.416,59.416,0,0,1-7.218,5.275v8.328c.833-.555,2.5-1.388,3.332-1.943a18.589,18.589,0,0,0,3.886-2.5,57.427,57.427,0,0,0,24.154-46.363A55.579,55.579,0,0,0,144.862,94Z" fill="#009abf"/>
      </g>
    </g>
    <g id="Group_17" data-name="Group 17" transform="translate(-1113 1739)" style="isolation: isolate">
      <path id="Path_123" data-name="Path 123" d="M220.99,127.047h5.9l4.327,17.878,4.712-17.878h4.137l4.674,17.875,4.319-17.875h5.9l-7.046,24.742h-5.6l-4.265-16.674-4.227,16.674h-5.764Z" fill="#001e61"/>
      <path id="Path_124" data-name="Path 124" d="M256.5,144.586a14.18,14.18,0,0,1,0-10.314,11.871,11.871,0,0,1,2.671-4.056,12.3,12.3,0,0,1,4.112-2.63,13.918,13.918,0,0,1,5.182-.957,13.525,13.525,0,0,1,6.637,1.624,11.755,11.755,0,0,1,4.611,4.55,14.017,14.017,0,0,1,0,13.252,11.742,11.742,0,0,1-4.611,4.558,13.463,13.463,0,0,1-6.637,1.629,13.86,13.86,0,0,1-5.182-.96,12.3,12.3,0,0,1-4.112-2.632A11.9,11.9,0,0,1,256.5,144.586Zm4.446-5.16a8.484,8.484,0,0,0,2.066,5.856,7.536,7.536,0,0,0,10.886,0,9.332,9.332,0,0,0,0-11.712,7.594,7.594,0,0,0-10.9,0A8.477,8.477,0,0,0,260.947,139.426Z" fill="#001e61"/>
      <path id="Path_125" data-name="Path 125" d="M285.077,151.789V127.047h11.574a8.3,8.3,0,0,1,6.076,2.226A7.694,7.694,0,0,1,305,135.015a8.55,8.55,0,0,1-.472,2.882,6.469,6.469,0,0,1-1.266,2.2,7.935,7.935,0,0,1-1.73,1.45,6.975,6.975,0,0,1-1.985.825l5.6,9.418h-6.084l-4.855-8.784h-3.858v8.784Zm5.271-13.423h5.56a3.848,3.848,0,0,0,2.636-.914,3.124,3.124,0,0,0,1.041-2.472,3.005,3.005,0,0,0-1.041-2.4,3.892,3.892,0,0,0-2.636-.9h-5.56Z" fill="#001e61"/>
      <path id="Path_126" data-name="Path 126" d="M308.7,151.789V127.047h5.27v20.106h10.487v4.636Z" fill="#001e61"/>
      <path id="Path_127" data-name="Path 127" d="M328.006,151.789V127.047h9.747a13.3,13.3,0,0,1,9.467,3.4,11.67,11.67,0,0,1,3.644,8.947,12.655,12.655,0,0,1-1.654,6.521,11.116,11.116,0,0,1-4.62,4.348,14.7,14.7,0,0,1-6.8,1.521Zm5.271-4.636h4.492a7.983,7.983,0,0,0,4.167-1.071,6.954,6.954,0,0,0,2.69-2.806,8.354,8.354,0,0,0,.894-3.877,7.8,7.8,0,0,0-2.028-5.552,7.414,7.414,0,0,0-5.688-2.164h-4.527Z" fill="#001e61"/>
      <path id="Path_128" data-name="Path 128" d="M362.457,148.324l2.9-4.121a11.333,11.333,0,0,0,3.452,2.457,10.3,10.3,0,0,0,4.411.946,5.43,5.43,0,0,0,3.188-.794,2.378,2.378,0,0,0,1.1-1.985,1.729,1.729,0,0,0-.616-1.326,3.952,3.952,0,0,0-1.616-.835q-1-.276-2.274-.632t-2.611-.653a13.71,13.71,0,0,1-2.619-.87,11.64,11.64,0,0,1-2.272-1.329,5.405,5.405,0,0,1-1.613-2.044,6.8,6.8,0,0,1-.616-2.961,6.7,6.7,0,0,1,2.562-5.335,10.235,10.235,0,0,1,6.822-2.158,13.623,13.623,0,0,1,9.622,3.416l-2.915,3.931A9.887,9.887,0,0,0,376.019,132a11.151,11.151,0,0,0-3.834-.683,4.391,4.391,0,0,0-2.573.656,2.059,2.059,0,0,0-.924,1.768,1.5,1.5,0,0,0,.612,1.184,4.287,4.287,0,0,0,1.624.781q1.012.28,2.294.6c.854.208,1.722.423,2.6.639a13.772,13.772,0,0,1,2.581.922,11.9,11.9,0,0,1,2.258,1.38,5.535,5.535,0,0,1,1.6,2.088,7.056,7.056,0,0,1,.6,2.977,7.22,7.22,0,0,1-2.535,5.734q-2.538,2.2-7.318,2.2Q366.4,152.242,362.457,148.324Z" fill="#001e61"/>
      <path id="Path_129" data-name="Path 129" d="M384.375,131.683v-4.636h19.761v4.636h-7.225v20.106h-5.273V131.683Z" fill="#001e61"/>
      <path id="Path_130" data-name="Path 130" d="M402.526,151.789l9.53-24.742h6.61l9.527,24.742h-5.976l-1.559-4.183h-10.6l-1.559,4.183Zm8.966-8.822h7.719l-3.858-10.65Z" fill="#001e61"/>
      <path id="Path_131" data-name="Path 131" d="M430.476,151.789V127.047H442.05a8.3,8.3,0,0,1,6.078,2.226,7.688,7.688,0,0,1,2.272,5.742,8.524,8.524,0,0,1-.469,2.882,6.441,6.441,0,0,1-1.269,2.2,7.929,7.929,0,0,1-1.729,1.45,6.916,6.916,0,0,1-1.985.825l5.6,9.418H444.46l-4.853-8.784h-3.861v8.784Zm5.27-13.423h5.564a3.855,3.855,0,0,0,2.635-.914,3.124,3.124,0,0,0,1.041-2.472,3.005,3.005,0,0,0-1.041-2.4,3.9,3.9,0,0,0-2.635-.9h-5.564Z" fill="#001e61"/>
    </g>
    <text id="FACILITY_MANAGEMENT_" data-name="FACILITY MANAGEMENT " transform="translate(-891.392 1917.214)" fill="#001e61" font-size="20.934" font-family="Helvetica"><tspan x="0" y="0">FACILITY MANAGEMENT </tspan></text>
    <g id="Group_18" data-name="Group 18" transform="translate(-1113 1739)">
      <path id="Path_132" data-name="Path 132" d="M459.934,117.715a4.961,4.961,0,1,0,1.453,3.508A4.929,4.929,0,0,0,459.934,117.715Zm-3.508,7.922a4.414,4.414,0,1,1,4.414-4.414A4.419,4.419,0,0,1,456.426,125.637Z" fill="#001e61"/>
      <path id="Path_133" data-name="Path 133" d="M458.4,120.317V120.3a1.391,1.391,0,0,0-.381-.992,1.854,1.854,0,0,0-1.326-.459h-2.048v4.6h.807v-1.6h1.011l1.129,1.6h.952l-1.24-1.739A1.379,1.379,0,0,0,458.4,120.317Zm-2.948.814v-1.543h1.175c.6,0,.952.269.952.762v.013c0,.466-.367.768-.945.768Z" fill="#001e61"/>
    </g>
  </g>
</svg>
