<svg xmlns="http://www.w3.org/2000/svg" width="19.365" height="19.306" viewBox="0 0 19.365 19.306">
  <path id="Path_340" data-name="Path 340" d="M18.867,12.657a3.049,3.049,0,0,1-.649-.116,9.552,9.552,0,0,1-1.269-.378,1.938,1.938,0,0,0-2.4.969l-.213.446a12.759,12.759,0,0,1-2.587-1.938A12.759,12.759,0,0,1,9.809,9.053l.446-.2a1.938,1.938,0,0,0,.969-2.4,10.144,10.144,0,0,1-.378-1.279c-.048-.213-.087-.436-.116-.649A2.906,2.906,0,0,0,7.823,2.107H4.907A2.9,2.9,0,0,0,2.029,5.4a18.415,18.415,0,0,0,15.9,15.9,2.481,2.481,0,0,0,.378,0,2.9,2.9,0,0,0,2.906-2.906V15.486A2.906,2.906,0,0,0,18.867,12.657Zm.475,5.813a.974.974,0,0,1-1.114.959A16.625,16.625,0,0,1,8.666,14.74,16.625,16.625,0,0,1,3.938,5.149a.974.974,0,0,1,.969-1.114H7.813a.969.969,0,0,1,.969.756,3.813,3.813,0,0,0,.145.794,10.657,10.657,0,0,0,.446,1.492l-1.356.639a1.01,1.01,0,0,0-.5,1.279,14.038,14.038,0,0,0,6.782,6.782,1.01,1.01,0,0,0,1.279-.5l.61-1.356a12.023,12.023,0,0,0,1.531.446c.252.058.523.107.785.145a.969.969,0,0,1,.756.969ZM13.626,2h-.678a.972.972,0,0,0,.165,1.938h.513a5.813,5.813,0,0,1,5.813,5.813v.513a.969.969,0,0,0,.882,1.046H20.4a.969.969,0,0,0,.969-.882V9.751A7.751,7.751,0,0,0,13.626,2Zm1.938,7.751a.969.969,0,1,0,1.938,0,3.875,3.875,0,0,0-3.875-3.875.969.969,0,1,0,0,1.938A1.938,1.938,0,0,1,15.564,9.751Z" transform="translate(-2.002 -2)" fill="#fff"/>
</svg>
