<svg id="Group_317" data-name="Group 317" xmlns="http://www.w3.org/2000/svg" width="13.821" height="22.374" viewBox="0 0 13.821 22.374">
  <path id="Path_338" data-name="Path 338" d="M19.261,2.92H10.4A2.48,2.48,0,0,0,7.92,5.4V22.814a2.48,2.48,0,0,0,2.48,2.48h8.861a2.48,2.48,0,0,0,2.48-2.48V5.4a2.48,2.48,0,0,0-2.48-2.48Zm.633,19.894a.633.633,0,0,1-.633.633H10.4a.633.633,0,0,1-.633-.633V5.4a.633.633,0,0,1,.633-.633h8.861a.633.633,0,0,1,.633.633Z" transform="translate(-7.92 -2.92)" fill="#fff"/>
  <path id="Path_339" data-name="Path 339" d="M16.554,23.92H14.844a.924.924,0,1,0,0,1.847h1.711a.924.924,0,1,0,0-1.847Z" transform="translate(-8.788 -5.959)" fill="#fff"/>
</svg>
