<svg xmlns="http://www.w3.org/2000/svg" width="12.471" height="12.471" viewBox="0 0 12.471 12.471">
  <path id="Path_341" data-name="Path 341" d="M11.565,4.158h0a.748.748,0,1,0,.748.748A.748.748,0,0,0,11.565,4.158Zm2.868,1.509a4.733,4.733,0,0,0-.287-1.515,3.08,3.08,0,0,0-.723-1.1,2.931,2.931,0,0,0-1.1-.717A4.552,4.552,0,0,0,10.8,2.037C10.144,2,9.932,2,8.236,2s-1.908,0-2.569.037a4.552,4.552,0,0,0-1.515.293,2.981,2.981,0,0,0-1.1.717,2.931,2.931,0,0,0-.717,1.1,4.552,4.552,0,0,0-.293,1.515C2,6.327,2,6.539,2,8.236s0,1.908.037,2.569A4.552,4.552,0,0,0,2.33,12.32a2.931,2.931,0,0,0,.717,1.1,2.981,2.981,0,0,0,1.1.717,4.552,4.552,0,0,0,1.515.293c.661.037.873.037,2.569.037s1.908,0,2.569-.037a4.552,4.552,0,0,0,1.515-.293,2.931,2.931,0,0,0,1.1-.717,3.024,3.024,0,0,0,.723-1.1,4.733,4.733,0,0,0,.287-1.515c0-.661.037-.873.037-2.569S14.471,6.327,14.434,5.667ZM13.311,10.73a3.5,3.5,0,0,1-.212,1.16,1.908,1.908,0,0,1-.468.717,1.989,1.989,0,0,1-.717.468,3.5,3.5,0,0,1-1.16.212c-.624.031-.854.037-2.494.037s-1.871,0-2.494-.037a3.573,3.573,0,0,1-1.21-.187,2.039,2.039,0,0,1-.686-.468,1.871,1.871,0,0,1-.461-.717A3.454,3.454,0,0,1,3.16,10.73c0-.624-.037-.854-.037-2.494s0-1.871.037-2.494a3.454,3.454,0,0,1,.218-1.185,1.871,1.871,0,0,1,.493-.686,1.958,1.958,0,0,1,.686-.5A3.573,3.573,0,0,1,5.741,3.16c.624,0,.854-.037,2.494-.037s1.871,0,2.494.037a3.5,3.5,0,0,1,1.16.212,1.908,1.908,0,0,1,.742.5,1.908,1.908,0,0,1,.468.686,3.5,3.5,0,0,1,.212,1.185c.031.624.037.854.037,2.494S13.342,10.106,13.311,10.73ZM8.236,5.037A3.193,3.193,0,1,0,10.5,5.97,3.2,3.2,0,0,0,8.236,5.037Zm0,5.275a2.076,2.076,0,1,1,2.076-2.076,2.076,2.076,0,0,1-2.076,2.076Z" transform="translate(-2 -2)" fill="#fff"/>
</svg>
