<svg xmlns="http://www.w3.org/2000/svg" width="20.445" height="19.537" viewBox="0 0 20.445 19.537">
  <path id="Path_37263" data-name="Path 37263" d="M0,7.27A2.125,2.125,0,0,1,.691,5.641,2.534,2.534,0,0,1,2.487,5a2.458,2.458,0,0,1,1.756.632,2.226,2.226,0,0,1,.691,1.7,2.078,2.078,0,0,1-.671,1.579,2.539,2.539,0,0,1-1.816.651h-.02A2.415,2.415,0,0,1,.671,8.908,2.187,2.187,0,0,1,0,7.27ZM.257,24.538V11.355H4.638V24.538Zm6.809,0h4.381V17.176a2.569,2.569,0,0,1,1-2.2,2.144,2.144,0,0,1,1.411-.464q2.21,0,2.21,2.98v7.045h4.381V16.979a6.352,6.352,0,0,0-1.381-4.43,4.712,4.712,0,0,0-3.651-1.51,4.479,4.479,0,0,0-3.967,2.191v.039h-.02l.02-.039V11.355H7.065q.039.632.039,3.927T7.065,24.538Z" transform="translate(0 -5)" fill="#fff"/>
</svg>
