<svg xmlns="http://www.w3.org/2000/svg" width="9.651" height="12.471" viewBox="0 0 9.651 12.471">
  <path id="Path_344" data-name="Path 344" d="M0,4.476A3.926,3.926,0,0,1,.33,2.918a4.949,4.949,0,0,1,.948-1.434A4.528,4.528,0,0,1,2.9.411,5.818,5.818,0,0,1,5.125,0,4.506,4.506,0,0,1,8.379,1.222,3.865,3.865,0,0,1,9.651,4.1,5.573,5.573,0,0,1,8.572,7.624a3.372,3.372,0,0,1-2.787,1.39,2.21,2.21,0,0,1-1.054-.262,1.6,1.6,0,0,1-.692-.636l-.5,1.97a3.818,3.818,0,0,1-.162.48c-.066.162-.14.318-.218.468s-.158.291-.237.424-.158.258-.237.374-.147.214-.206.293-.112.147-.162.206l-.075.1a.092.092,0,0,1-.1.037.09.09,0,0,1-.075-.075c0-.009-.006-.066-.019-.175s-.025-.222-.037-.343-.025-.277-.037-.468-.016-.377-.012-.555.016-.377.037-.592a4.947,4.947,0,0,1,.094-.6q.137-.585.923-3.9a2.1,2.1,0,0,1-.162-.48,2.231,2.231,0,0,1-.062-.455L2.78,4.638A2.118,2.118,0,0,1,3.186,3.31a1.2,1.2,0,0,1,.979-.53.885.885,0,0,1,.717.305,1.151,1.151,0,0,1,.256.767,2.933,2.933,0,0,1-.106.7q-.107.417-.281.96T4.5,6.4a1.077,1.077,0,0,0,.218.973,1.131,1.131,0,0,0,.916.411A1.873,1.873,0,0,0,7.263,6.664a5.333,5.333,0,0,0,.642-2.7,2.64,2.64,0,0,0-.786-1.976,3.009,3.009,0,0,0-2.194-.767,3.391,3.391,0,0,0-2.55,1.01A3.355,3.355,0,0,0,1.4,4.651,2.141,2.141,0,0,0,1.87,6.06a.406.406,0,0,1,.1.4,2.579,2.579,0,0,0-.075.287,2.58,2.58,0,0,1-.075.287.223.223,0,0,1-.125.181.282.282,0,0,1-.224-.006,2.086,2.086,0,0,1-1.1-1.029A3.728,3.728,0,0,1,0,4.476Z" fill="#fff"/>
</svg>
