<svg xmlns="http://www.w3.org/2000/svg" width="12.471" height="10.152" viewBox="0 0 12.471 10.152">
  <path id="Path_343" data-name="Path 343" d="M14.471,5.066a5.294,5.294,0,0,1-1.472.4,2.575,2.575,0,0,0,1.129-1.415,5.119,5.119,0,0,1-1.627.624A2.557,2.557,0,0,0,8.136,7,7.258,7.258,0,0,1,2.867,4.33a2.594,2.594,0,0,0-.343,1.291A2.55,2.55,0,0,0,3.659,7.747,2.525,2.525,0,0,1,2.5,7.429V7.46A2.557,2.557,0,0,0,4.557,9.954a2.451,2.451,0,0,1-.686.106,3.056,3.056,0,0,1-.48-.044,2.563,2.563,0,0,0,2.388,1.771,5.126,5.126,0,0,1-3.155,1.1A4.944,4.944,0,0,1,2,12.848,7.215,7.215,0,0,0,5.922,14a7.227,7.227,0,0,0,7.3-7.283v-.33a5.257,5.257,0,0,0,1.247-1.322Z" transform="translate(-2 -3.849)" fill="#fff"/>
</svg>
