<svg xmlns="http://www.w3.org/2000/svg" width="13.727" height="9.646" viewBox="0 0 13.727 9.646">
  <path id="Path_345" data-name="Path 345" d="M14.715,7.658a5.3,5.3,0,0,0-.567-2.575,1.821,1.821,0,0,0-1.073-.624,48.864,48.864,0,0,0-5.219-.193,48.916,48.916,0,0,0-5.2.187,1.79,1.79,0,0,0-.91.461,3.217,3.217,0,0,0-.686,2.151,30.11,30.11,0,0,0,0,4.041,5.955,5.955,0,0,0,.187,1.247,1.958,1.958,0,0,0,.443.848,1.783,1.783,0,0,0,.929.486,28.172,28.172,0,0,0,4.053.206c2.182.031,4.1,0,6.36-.175a1.8,1.8,0,0,0,.954-.486,1.553,1.553,0,0,0,.38-.624,6.6,6.6,0,0,0,.324-2.12C14.715,10.139,14.715,8.032,14.715,7.658ZM6.447,10.863V7l3.691,1.939C9.1,9.516,7.737,10.164,6.447,10.863Z" transform="translate(-0.991 -4.258)" fill="#fff"/>
</svg>
