<svg xmlns="http://www.w3.org/2000/svg" width="510.305" height="500.39" viewBox="0 0 510.305 500.39">
  <g id="Group_11273" data-name="Group 11273" transform="translate(-416 -388.122)" opacity="0.052">
    <path id="Union_32" data-name="Union 32" d="M370.113,461.6a265.724,265.724,0,0,0,32.239-24.57A225.649,225.649,0,0,0,458.5,359.1a234.561,234.561,0,0,0,19.5-95.324c.2-54.649-18.286-107.584-52.156-149.294S344.956,45.016,293.236,36.2L287.033,0C349.262,6.558,406.819,37.37,448.2,86.27s63.533,112.287,62.032,177.486a276.63,276.63,0,0,1-29.01,121.511,264.505,264.505,0,0,1-78.871,94.426A82.783,82.783,0,0,1,385,491.335c-3.715,2.585-11.164,6.466-14.887,9.054ZM125.305,491.335a82.684,82.684,0,0,1-17.352-11.643,264.506,264.506,0,0,1-78.871-94.426A276.63,276.63,0,0,1,.072,263.757c-1.5-65.2,20.647-128.586,62.032-177.486S161.043,6.558,223.272,0l-6.2,36.209c-51.724,8.807-98.742,36.56-132.605,78.273S32.11,209.127,32.311,263.776a234.593,234.593,0,0,0,19.5,95.328,225.671,225.671,0,0,0,56.145,77.926,265.725,265.725,0,0,0,32.239,24.57V500.39C136.47,497.8,129.02,493.92,125.305,491.335ZM369.469,363.494h32.247v67.661a154.655,154.655,0,0,1-32.247,24.72ZM108.59,431.155V363.494h32.247v92.381A154.756,154.756,0,0,1,108.59,431.155Z" transform="translate(416 388.122)" fill="#c3101d"/>
    <path id="Path_640" data-name="Path 640" d="M270.009,399.18c-6.628,71.021-12,76.327-83.673,82.894,71.673,6.463,77.042,11.9,83.673,82.99,6.515-71.1,11.885-76.524,83.646-82.99C281.894,475.51,276.525,470.205,270.009,399.18Z" transform="translate(401.16 10.38)" fill="#c3101d"/>
    <path id="Union_35" data-name="Union 35" d="M166.168,278.323l-8.68-11.716L95.494,195.047,95.51,124.8,190.984,240.6h-.015v67.645ZM.015,240.6H0L95.475,124.8l.015,70.249-62,71.561-8.676,11.716L.015,308.248ZM132.71,164.547V0l58.275,31.228V235.491ZM0,31.228,58.275,0V164.547L0,235.491Z" transform="translate(576.687 578.445)" fill="#c3101d"/>
  </g>
</svg>
